# Tiled2Unity generated file. Do not modify by hand.
# Wavefront file for 'LB_Tower_mesh_0003.obj'

# Vertices (Count = 16)
v -672 -320 0
v -704 -320 0
v -704 -288 0
v -672 -288 0
v -1152 -352 0
v -1184 -352 0
v -1184 -320 0
v -1152 -320 0
v -1344 -896 0
v -1376 -896 0
v -1376 -864 0
v -1344 -864 0
v -1376 -896 0
v -1408 -896 0
v -1408 -864 0
v -1376 -864 0

# Texture cooridinates (Count = 12)
vt 0.7 0.8
vt 0.8 0.8
vt 0.8 0.9
vt 0.7 0.9
vt 0.5 0.6
vt 0.6 0.6
vt 0.6 0.7
vt 0.5 0.7
vt 0.5 0.4
vt 0.6 0.4
vt 0.6 0.5
vt 0.5 0.5

# Normal
vn 0 0 -1

# Mesh description
g LB_Tower_mesh_0003

# Faces
f 1/1/1 2/2/1 3/3/1 4/4/1
f 5/5/1 6/6/1 7/7/1 8/8/1
f 9/9/1 10/10/1 11/11/1 12/12/1
f 13/9/1 14/10/1 15/11/1 16/12/1

