# Tiled2Unity generated file. Do not modify by hand.
# Wavefront file for 'LB_Tower_mesh_0001.obj'

# Vertices (Count = 884)
v -1152 -256 0
v -1184 -256 0
v -1184 -224 0
v -1152 -224 0
v -1184 -256 0
v -1216 -256 0
v -1216 -224 0
v -1184 -224 0
v -1216 -256 0
v -1248 -256 0
v -1248 -224 0
v -1216 -224 0
v -1152 -288 0
v -1184 -288 0
v -1184 -256 0
v -1152 -256 0
v -1184 -288 0
v -1216 -288 0
v -1216 -256 0
v -1184 -256 0
v -1216 -288 0
v -1248 -288 0
v -1248 -256 0
v -1216 -256 0
v -1152 -320 0
v -1184 -320 0
v -1184 -288 0
v -1152 -288 0
v -1184 -320 0
v -1216 -320 0
v -1216 -288 0
v -1184 -288 0
v -1216 -320 0
v -1248 -320 0
v -1248 -288 0
v -1216 -288 0
v -608 -544 0
v -640 -544 0
v -640 -512 0
v -608 -512 0
v -640 -544 0
v -672 -544 0
v -672 -512 0
v -640 -512 0
v -672 -544 0
v -704 -544 0
v -704 -512 0
v -672 -512 0
v -704 -544 0
v -736 -544 0
v -736 -512 0
v -704 -512 0
v -736 -544 0
v -768 -544 0
v -768 -512 0
v -736 -512 0
v -1216 -544 0
v -1248 -544 0
v -1248 -512 0
v -1216 -512 0
v -1248 -544 0
v -1280 -544 0
v -1280 -512 0
v -1248 -512 0
v -1280 -544 0
v -1312 -544 0
v -1312 -512 0
v -1280 -512 0
v -608 -576 0
v -640 -576 0
v -640 -544 0
v -608 -544 0
v -640 -576 0
v -672 -576 0
v -672 -544 0
v -640 -544 0
v -672 -576 0
v -704 -576 0
v -704 -544 0
v -672 -544 0
v -704 -576 0
v -736 -576 0
v -736 -544 0
v -704 -544 0
v -736 -576 0
v -768 -576 0
v -768 -544 0
v -736 -544 0
v -1216 -576 0
v -1248 -576 0
v -1248 -544 0
v -1216 -544 0
v -1248 -576 0
v -1280 -576 0
v -1280 -544 0
v -1248 -544 0
v -1280 -576 0
v -1312 -576 0
v -1312 -544 0
v -1280 -544 0
v -608 -608 0
v -640 -608 0
v -640 -576 0
v -608 -576 0
v -640 -608 0
v -672 -608 0
v -672 -576 0
v -640 -576 0
v -672 -608 0
v -704 -608 0
v -704 -576 0
v -672 -576 0
v -704 -608 0
v -736 -608 0
v -736 -576 0
v -704 -576 0
v -736 -608 0
v -768 -608 0
v -768 -576 0
v -736 -576 0
v -608 -640 0
v -640 -640 0
v -640 -608 0
v -608 -608 0
v -640 -640 0
v -672 -640 0
v -672 -608 0
v -640 -608 0
v -672 -640 0
v -704 -640 0
v -704 -608 0
v -672 -608 0
v -704 -640 0
v -736 -640 0
v -736 -608 0
v -704 -608 0
v -736 -640 0
v -768 -640 0
v -768 -608 0
v -736 -608 0
v -768 -640 0
v -800 -640 0
v -800 -608 0
v -768 -608 0
v -800 -640 0
v -832 -640 0
v -832 -608 0
v -800 -608 0
v -832 -640 0
v -864 -640 0
v -864 -608 0
v -832 -608 0
v -864 -640 0
v -896 -640 0
v -896 -608 0
v -864 -608 0
v -608 -672 0
v -640 -672 0
v -640 -640 0
v -608 -640 0
v -640 -672 0
v -672 -672 0
v -672 -640 0
v -640 -640 0
v -672 -672 0
v -704 -672 0
v -704 -640 0
v -672 -640 0
v -704 -672 0
v -736 -672 0
v -736 -640 0
v -704 -640 0
v -736 -672 0
v -768 -672 0
v -768 -640 0
v -736 -640 0
v -768 -672 0
v -800 -672 0
v -800 -640 0
v -768 -640 0
v -800 -672 0
v -832 -672 0
v -832 -640 0
v -800 -640 0
v -832 -672 0
v -864 -672 0
v -864 -640 0
v -832 -640 0
v -864 -672 0
v -896 -672 0
v -896 -640 0
v -864 -640 0
v -608 -704 0
v -640 -704 0
v -640 -672 0
v -608 -672 0
v -640 -704 0
v -672 -704 0
v -672 -672 0
v -640 -672 0
v -672 -704 0
v -704 -704 0
v -704 -672 0
v -672 -672 0
v -704 -704 0
v -736 -704 0
v -736 -672 0
v -704 -672 0
v -736 -704 0
v -768 -704 0
v -768 -672 0
v -736 -672 0
v -768 -704 0
v -800 -704 0
v -800 -672 0
v -768 -672 0
v -800 -704 0
v -832 -704 0
v -832 -672 0
v -800 -672 0
v -832 -704 0
v -864 -704 0
v -864 -672 0
v -832 -672 0
v -864 -704 0
v -896 -704 0
v -896 -672 0
v -864 -672 0
v -896 -704 0
v -928 -704 0
v -928 -672 0
v -896 -672 0
v -928 -704 0
v -960 -704 0
v -960 -672 0
v -928 -672 0
v -960 -704 0
v -992 -704 0
v -992 -672 0
v -960 -672 0
v -992 -704 0
v -1024 -704 0
v -1024 -672 0
v -992 -672 0
v -1024 -704 0
v -1056 -704 0
v -1056 -672 0
v -1024 -672 0
v -608 -736 0
v -640 -736 0
v -640 -704 0
v -608 -704 0
v -640 -736 0
v -672 -736 0
v -672 -704 0
v -640 -704 0
v -672 -736 0
v -704 -736 0
v -704 -704 0
v -672 -704 0
v -704 -736 0
v -736 -736 0
v -736 -704 0
v -704 -704 0
v -736 -736 0
v -768 -736 0
v -768 -704 0
v -736 -704 0
v -768 -736 0
v -800 -736 0
v -800 -704 0
v -768 -704 0
v -800 -736 0
v -832 -736 0
v -832 -704 0
v -800 -704 0
v -832 -736 0
v -864 -736 0
v -864 -704 0
v -832 -704 0
v -864 -736 0
v -896 -736 0
v -896 -704 0
v -864 -704 0
v -896 -736 0
v -928 -736 0
v -928 -704 0
v -896 -704 0
v -928 -736 0
v -960 -736 0
v -960 -704 0
v -928 -704 0
v -960 -736 0
v -992 -736 0
v -992 -704 0
v -960 -704 0
v -992 -736 0
v -1024 -736 0
v -1024 -704 0
v -992 -704 0
v -1024 -736 0
v -1056 -736 0
v -1056 -704 0
v -1024 -704 0
v -608 -768 0
v -640 -768 0
v -640 -736 0
v -608 -736 0
v -640 -768 0
v -672 -768 0
v -672 -736 0
v -640 -736 0
v -672 -768 0
v -704 -768 0
v -704 -736 0
v -672 -736 0
v -896 -768 0
v -928 -768 0
v -928 -736 0
v -896 -736 0
v -928 -768 0
v -960 -768 0
v -960 -736 0
v -928 -736 0
v -960 -768 0
v -992 -768 0
v -992 -736 0
v -960 -736 0
v -992 -768 0
v -1024 -768 0
v -1024 -736 0
v -992 -736 0
v -1024 -768 0
v -1056 -768 0
v -1056 -736 0
v -1024 -736 0
v -608 -800 0
v -640 -800 0
v -640 -768 0
v -608 -768 0
v -640 -800 0
v -672 -800 0
v -672 -768 0
v -640 -768 0
v -672 -800 0
v -704 -800 0
v -704 -768 0
v -672 -768 0
v -704 -800 0
v -736 -800 0
v -736 -768 0
v -704 -768 0
v -736 -800 0
v -768 -800 0
v -768 -768 0
v -736 -768 0
v -768 -800 0
v -800 -800 0
v -800 -768 0
v -768 -768 0
v -800 -800 0
v -832 -800 0
v -832 -768 0
v -800 -768 0
v -832 -800 0
v -864 -800 0
v -864 -768 0
v -832 -768 0
v -864 -800 0
v -896 -800 0
v -896 -768 0
v -864 -768 0
v -896 -800 0
v -928 -800 0
v -928 -768 0
v -896 -768 0
v -928 -800 0
v -960 -800 0
v -960 -768 0
v -928 -768 0
v -608 -832 0
v -640 -832 0
v -640 -800 0
v -608 -800 0
v -640 -832 0
v -672 -832 0
v -672 -800 0
v -640 -800 0
v -672 -832 0
v -704 -832 0
v -704 -800 0
v -672 -800 0
v -704 -832 0
v -736 -832 0
v -736 -800 0
v -704 -800 0
v -736 -832 0
v -768 -832 0
v -768 -800 0
v -736 -800 0
v -768 -832 0
v -800 -832 0
v -800 -800 0
v -768 -800 0
v -800 -832 0
v -832 -832 0
v -832 -800 0
v -800 -800 0
v -832 -832 0
v -864 -832 0
v -864 -800 0
v -832 -800 0
v -864 -832 0
v -896 -832 0
v -896 -800 0
v -864 -800 0
v -896 -832 0
v -928 -832 0
v -928 -800 0
v -896 -800 0
v -928 -832 0
v -960 -832 0
v -960 -800 0
v -928 -800 0
v -608 -864 0
v -640 -864 0
v -640 -832 0
v -608 -832 0
v -640 -864 0
v -672 -864 0
v -672 -832 0
v -640 -832 0
v -672 -864 0
v -704 -864 0
v -704 -832 0
v -672 -832 0
v -704 -864 0
v -736 -864 0
v -736 -832 0
v -704 -832 0
v -736 -864 0
v -768 -864 0
v -768 -832 0
v -736 -832 0
v -768 -864 0
v -800 -864 0
v -800 -832 0
v -768 -832 0
v -800 -864 0
v -832 -864 0
v -832 -832 0
v -800 -832 0
v -832 -864 0
v -864 -864 0
v -864 -832 0
v -832 -832 0
v -864 -864 0
v -896 -864 0
v -896 -832 0
v -864 -832 0
v -896 -864 0
v -928 -864 0
v -928 -832 0
v -896 -832 0
v -928 -864 0
v -960 -864 0
v -960 -832 0
v -928 -832 0
v -1408 -864 0
v -1440 -864 0
v -1440 -832 0
v -1408 -832 0
v -1440 -864 0
v -1472 -864 0
v -1472 -832 0
v -1440 -832 0
v -1472 -864 0
v -1504 -864 0
v -1504 -832 0
v -1472 -832 0
v -1504 -864 0
v -1536 -864 0
v -1536 -832 0
v -1504 -832 0
v -608 -896 0
v -640 -896 0
v -640 -864 0
v -608 -864 0
v -640 -896 0
v -672 -896 0
v -672 -864 0
v -640 -864 0
v -672 -896 0
v -704 -896 0
v -704 -864 0
v -672 -864 0
v -704 -896 0
v -736 -896 0
v -736 -864 0
v -704 -864 0
v -736 -896 0
v -768 -896 0
v -768 -864 0
v -736 -864 0
v -768 -896 0
v -800 -896 0
v -800 -864 0
v -768 -864 0
v -800 -896 0
v -832 -896 0
v -832 -864 0
v -800 -864 0
v -832 -896 0
v -864 -896 0
v -864 -864 0
v -832 -864 0
v -864 -896 0
v -896 -896 0
v -896 -864 0
v -864 -864 0
v -896 -896 0
v -928 -896 0
v -928 -864 0
v -896 -864 0
v -928 -896 0
v -960 -896 0
v -960 -864 0
v -928 -864 0
v -1408 -896 0
v -1440 -896 0
v -1440 -864 0
v -1408 -864 0
v -1440 -896 0
v -1472 -896 0
v -1472 -864 0
v -1440 -864 0
v -1472 -896 0
v -1504 -896 0
v -1504 -864 0
v -1472 -864 0
v -1504 -896 0
v -1536 -896 0
v -1536 -864 0
v -1504 -864 0
v -800 -928 0
v -832 -928 0
v -832 -896 0
v -800 -896 0
v -832 -928 0
v -864 -928 0
v -864 -896 0
v -832 -896 0
v -864 -928 0
v -896 -928 0
v -896 -896 0
v -864 -896 0
v -896 -928 0
v -928 -928 0
v -928 -896 0
v -896 -896 0
v -928 -928 0
v -960 -928 0
v -960 -896 0
v -928 -896 0
v -544 -960 0
v -576 -960 0
v -576 -928 0
v -544 -928 0
v -800 -960 0
v -832 -960 0
v -832 -928 0
v -800 -928 0
v -832 -960 0
v -864 -960 0
v -864 -928 0
v -832 -928 0
v -864 -960 0
v -896 -960 0
v -896 -928 0
v -864 -928 0
v -896 -960 0
v -928 -960 0
v -928 -928 0
v -896 -928 0
v -928 -960 0
v -960 -960 0
v -960 -928 0
v -928 -928 0
v -1344 -960 0
v -1376 -960 0
v -1376 -928 0
v -1344 -928 0
v -1376 -960 0
v -1408 -960 0
v -1408 -928 0
v -1376 -928 0
v -1408 -960 0
v -1440 -960 0
v -1440 -928 0
v -1408 -928 0
v -1440 -960 0
v -1472 -960 0
v -1472 -928 0
v -1440 -928 0
v -800 -992 0
v -832 -992 0
v -832 -960 0
v -800 -960 0
v -832 -992 0
v -864 -992 0
v -864 -960 0
v -832 -960 0
v -864 -992 0
v -896 -992 0
v -896 -960 0
v -864 -960 0
v -896 -992 0
v -928 -992 0
v -928 -960 0
v -896 -960 0
v -928 -992 0
v -960 -992 0
v -960 -960 0
v -928 -960 0
v -1344 -992 0
v -1376 -992 0
v -1376 -960 0
v -1344 -960 0
v -1376 -992 0
v -1408 -992 0
v -1408 -960 0
v -1376 -960 0
v -1408 -992 0
v -1440 -992 0
v -1440 -960 0
v -1408 -960 0
v -1440 -992 0
v -1472 -992 0
v -1472 -960 0
v -1440 -960 0
v -800 -1024 0
v -832 -1024 0
v -832 -992 0
v -800 -992 0
v -832 -1024 0
v -864 -1024 0
v -864 -992 0
v -832 -992 0
v -864 -1024 0
v -896 -1024 0
v -896 -992 0
v -864 -992 0
v -896 -1024 0
v -928 -1024 0
v -928 -992 0
v -896 -992 0
v -928 -1024 0
v -960 -1024 0
v -960 -992 0
v -928 -992 0
v -960 -1024 0
v -992 -1024 0
v -992 -992 0
v -960 -992 0
v -992 -1024 0
v -1024 -1024 0
v -1024 -992 0
v -992 -992 0
v -1024 -1024 0
v -1056 -1024 0
v -1056 -992 0
v -1024 -992 0
v -1056 -1024 0
v -1088 -1024 0
v -1088 -992 0
v -1056 -992 0
v -1088 -1024 0
v -1120 -1024 0
v -1120 -992 0
v -1088 -992 0
v -1120 -1024 0
v -1152 -1024 0
v -1152 -992 0
v -1120 -992 0
v -1152 -1024 0
v -1184 -1024 0
v -1184 -992 0
v -1152 -992 0
v -1184 -1024 0
v -1216 -1024 0
v -1216 -992 0
v -1184 -992 0
v -1216 -1024 0
v -1248 -1024 0
v -1248 -992 0
v -1216 -992 0
v -1248 -1024 0
v -1280 -1024 0
v -1280 -992 0
v -1248 -992 0
v -1280 -1024 0
v -1312 -1024 0
v -1312 -992 0
v -1280 -992 0
v -1312 -1024 0
v -1344 -1024 0
v -1344 -992 0
v -1312 -992 0
v -1344 -1024 0
v -1376 -1024 0
v -1376 -992 0
v -1344 -992 0
v -1376 -1024 0
v -1408 -1024 0
v -1408 -992 0
v -1376 -992 0
v -1408 -1024 0
v -1440 -1024 0
v -1440 -992 0
v -1408 -992 0
v -1440 -1024 0
v -1472 -1024 0
v -1472 -992 0
v -1440 -992 0
v -800 -1056 0
v -832 -1056 0
v -832 -1024 0
v -800 -1024 0
v -832 -1056 0
v -864 -1056 0
v -864 -1024 0
v -832 -1024 0
v -864 -1056 0
v -896 -1056 0
v -896 -1024 0
v -864 -1024 0
v -896 -1056 0
v -928 -1056 0
v -928 -1024 0
v -896 -1024 0
v -928 -1056 0
v -960 -1056 0
v -960 -1024 0
v -928 -1024 0
v -960 -1056 0
v -992 -1056 0
v -992 -1024 0
v -960 -1024 0
v -992 -1056 0
v -1024 -1056 0
v -1024 -1024 0
v -992 -1024 0
v -1024 -1056 0
v -1056 -1056 0
v -1056 -1024 0
v -1024 -1024 0
v -1056 -1056 0
v -1088 -1056 0
v -1088 -1024 0
v -1056 -1024 0
v -1088 -1056 0
v -1120 -1056 0
v -1120 -1024 0
v -1088 -1024 0
v -1120 -1056 0
v -1152 -1056 0
v -1152 -1024 0
v -1120 -1024 0
v -1152 -1056 0
v -1184 -1056 0
v -1184 -1024 0
v -1152 -1024 0
v -1184 -1056 0
v -1216 -1056 0
v -1216 -1024 0
v -1184 -1024 0
v -1216 -1056 0
v -1248 -1056 0
v -1248 -1024 0
v -1216 -1024 0
v -1248 -1056 0
v -1280 -1056 0
v -1280 -1024 0
v -1248 -1024 0
v -1280 -1056 0
v -1312 -1056 0
v -1312 -1024 0
v -1280 -1024 0
v -1312 -1056 0
v -1344 -1056 0
v -1344 -1024 0
v -1312 -1024 0
v -1344 -1056 0
v -1376 -1056 0
v -1376 -1024 0
v -1344 -1024 0
v -1376 -1056 0
v -1408 -1056 0
v -1408 -1024 0
v -1376 -1024 0
v -1408 -1056 0
v -1440 -1056 0
v -1440 -1024 0
v -1408 -1024 0
v -800 -1088 0
v -832 -1088 0
v -832 -1056 0
v -800 -1056 0
v -832 -1088 0
v -864 -1088 0
v -864 -1056 0
v -832 -1056 0
v -864 -1088 0
v -896 -1088 0
v -896 -1056 0
v -864 -1056 0
v -896 -1088 0
v -928 -1088 0
v -928 -1056 0
v -896 -1056 0
v -928 -1088 0
v -960 -1088 0
v -960 -1056 0
v -928 -1056 0
v -960 -1088 0
v -992 -1088 0
v -992 -1056 0
v -960 -1056 0
v -992 -1088 0
v -1024 -1088 0
v -1024 -1056 0
v -992 -1056 0
v -1024 -1088 0
v -1056 -1088 0
v -1056 -1056 0
v -1024 -1056 0
v -1056 -1088 0
v -1088 -1088 0
v -1088 -1056 0
v -1056 -1056 0
v -1088 -1088 0
v -1120 -1088 0
v -1120 -1056 0
v -1088 -1056 0
v -1120 -1088 0
v -1152 -1088 0
v -1152 -1056 0
v -1120 -1056 0
v -1152 -1088 0
v -1184 -1088 0
v -1184 -1056 0
v -1152 -1056 0
v -1184 -1088 0
v -1216 -1088 0
v -1216 -1056 0
v -1184 -1056 0
v -1216 -1088 0
v -1248 -1088 0
v -1248 -1056 0
v -1216 -1056 0
v -1248 -1088 0
v -1280 -1088 0
v -1280 -1056 0
v -1248 -1056 0
v -1280 -1088 0
v -1312 -1088 0
v -1312 -1056 0
v -1280 -1056 0
v -1312 -1088 0
v -1344 -1088 0
v -1344 -1056 0
v -1312 -1056 0
v -1344 -1088 0
v -1376 -1088 0
v -1376 -1056 0
v -1344 -1056 0
v -1376 -1088 0
v -1408 -1088 0
v -1408 -1056 0
v -1376 -1056 0
v -1408 -1088 0
v -1440 -1088 0
v -1440 -1056 0
v -1408 -1056 0

# Texture cooridinates (Count = 30)
vt 0 0.4
vt 0.1 0.4
vt 0.1 0.5
vt 0 0.5
vt 0.2 0.4
vt 0.2 0.5
vt 0.3 0.4
vt 0.3 0.5
vt 0 0.3
vt 0.1 0.3
vt 0.3 0.3
vt 0.4 0.3
vt 0.4 0.4
vt 0.2 0.3
vt 0 0.2
vt 0.1 0.2
vt 0.2 0.2
vt 0.3 0.2
vt 0.6 0.5
vt 0.7 0.5
vt 0.7 0.6
vt 0.6 0.6
vt 0.4 0.2
vt 0.4 0.5
vt 0 0.1
vt 0.1 0.1
vt 0 0
vt 0.1 0
vt 0.2 0
vt 0.2 0.1

# Normal
vn 0 0 -1

# Mesh description
g LB_Tower_mesh_0001

# Faces
f 1/1/1 2/2/1 3/3/1 4/4/1
f 5/2/1 6/5/1 7/6/1 8/3/1
f 9/5/1 10/7/1 11/8/1 12/6/1
f 13/9/1 14/10/1 15/2/1 16/1/1
f 17/11/1 18/12/1 19/13/1 20/7/1
f 21/14/1 22/11/1 23/7/1 24/5/1
f 25/15/1 26/16/1 27/10/1 28/9/1
f 29/16/1 30/17/1 31/14/1 32/10/1
f 33/17/1 34/18/1 35/11/1 36/14/1
f 37/1/1 38/2/1 39/3/1 40/4/1
f 41/2/1 42/5/1 43/6/1 44/3/1
f 45/2/1 46/5/1 47/6/1 48/3/1
f 49/2/1 50/5/1 51/6/1 52/3/1
f 53/5/1 54/7/1 55/8/1 56/6/1
f 57/19/1 58/20/1 59/21/1 60/22/1
f 61/19/1 62/20/1 63/21/1 64/22/1
f 65/19/1 66/20/1 67/21/1 68/22/1
f 69/9/1 70/10/1 71/2/1 72/1/1
f 73/18/1 74/23/1 75/12/1 76/11/1
f 77/18/1 78/23/1 79/12/1 80/11/1
f 81/11/1 82/12/1 83/13/1 84/7/1
f 85/14/1 86/11/1 87/7/1 88/5/1
f 89/19/1 90/20/1 91/21/1 92/22/1
f 93/19/1 94/20/1 95/21/1 96/22/1
f 97/19/1 98/20/1 99/21/1 100/22/1
f 101/9/1 102/10/1 103/2/1 104/1/1
f 105/7/1 106/13/1 107/24/1 108/8/1
f 109/25/1 110/26/1 111/16/1 112/15/1
f 113/16/1 114/17/1 115/14/1 116/10/1
f 117/17/1 118/18/1 119/11/1 120/14/1
f 121/9/1 122/10/1 123/2/1 124/1/1
f 125/18/1 126/23/1 127/12/1 128/11/1
f 129/14/1 130/11/1 131/7/1 132/5/1
f 133/1/1 134/2/1 135/3/1 136/4/1
f 137/2/1 138/5/1 139/6/1 140/3/1
f 141/2/1 142/5/1 143/6/1 144/3/1
f 145/2/1 146/5/1 147/6/1 148/3/1
f 149/2/1 150/5/1 151/6/1 152/3/1
f 153/5/1 154/7/1 155/8/1 156/6/1
f 157/9/1 158/10/1 159/2/1 160/1/1
f 161/10/1 162/14/1 163/5/1 164/2/1
f 165/27/1 166/28/1 167/26/1 168/25/1
f 169/28/1 170/29/1 171/30/1 172/26/1
f 173/11/1 174/12/1 175/13/1 176/7/1
f 177/11/1 178/12/1 179/13/1 180/7/1
f 181/18/1 182/23/1 183/12/1 184/11/1
f 185/7/1 186/13/1 187/24/1 188/8/1
f 189/14/1 190/11/1 191/7/1 192/5/1
f 193/9/1 194/10/1 195/2/1 196/1/1
f 197/7/1 198/13/1 199/24/1 200/8/1
f 201/10/1 202/14/1 203/5/1 204/2/1
f 205/18/1 206/23/1 207/12/1 208/11/1
f 209/10/1 210/14/1 211/5/1 212/2/1
f 213/11/1 214/12/1 215/13/1 216/7/1
f 217/18/1 218/23/1 219/12/1 220/11/1
f 221/10/1 222/14/1 223/5/1 224/2/1
f 225/14/1 226/11/1 227/7/1 228/5/1
f 229/1/1 230/2/1 231/3/1 232/4/1
f 233/2/1 234/5/1 235/6/1 236/3/1
f 237/2/1 238/5/1 239/6/1 240/3/1
f 241/2/1 242/5/1 243/6/1 244/3/1
f 245/5/1 246/7/1 247/8/1 248/6/1
f 249/15/1 250/16/1 251/10/1 252/9/1
f 253/16/1 254/17/1 255/14/1 256/10/1
f 257/16/1 258/17/1 259/14/1 260/10/1
f 261/16/1 262/17/1 263/14/1 264/10/1
f 265/16/1 266/17/1 267/14/1 268/10/1
f 269/16/1 270/17/1 271/14/1 272/10/1
f 273/16/1 274/17/1 275/14/1 276/10/1
f 277/16/1 278/17/1 279/14/1 280/10/1
f 281/17/1 282/18/1 283/11/1 284/14/1
f 285/9/1 286/10/1 287/2/1 288/1/1
f 289/7/1 290/13/1 291/24/1 292/8/1
f 293/7/1 294/13/1 295/24/1 296/8/1
f 297/10/1 298/14/1 299/5/1 300/2/1
f 301/14/1 302/11/1 303/7/1 304/5/1
f 305/1/1 306/2/1 307/3/1 308/4/1
f 309/2/1 310/5/1 311/6/1 312/3/1
f 313/5/1 314/7/1 315/8/1 316/6/1
f 317/15/1 318/16/1 319/10/1 320/9/1
f 321/16/1 322/17/1 323/14/1 324/10/1
f 325/16/1 326/17/1 327/14/1 328/10/1
f 329/16/1 330/17/1 331/14/1 332/10/1
f 333/17/1 334/18/1 335/11/1 336/14/1
f 337/9/1 338/10/1 339/2/1 340/1/1
f 341/10/1 342/14/1 343/5/1 344/2/1
f 345/14/1 346/11/1 347/7/1 348/5/1
f 349/1/1 350/2/1 351/3/1 352/4/1
f 353/2/1 354/5/1 355/6/1 356/3/1
f 357/5/1 358/7/1 359/8/1 360/6/1
f 361/1/1 362/2/1 363/3/1 364/4/1
f 365/2/1 366/5/1 367/6/1 368/3/1
f 369/2/1 370/5/1 371/6/1 372/3/1
f 373/2/1 374/5/1 375/6/1 376/3/1
f 377/5/1 378/7/1 379/8/1 380/6/1
f 381/9/1 382/10/1 383/2/1 384/1/1
f 385/18/1 386/23/1 387/12/1 388/11/1
f 389/14/1 390/11/1 391/7/1 392/5/1
f 393/9/1 394/10/1 395/2/1 396/1/1
f 397/11/1 398/12/1 399/13/1 400/7/1
f 401/27/1 402/28/1 403/26/1 404/25/1
f 405/28/1 406/29/1 407/30/1 408/26/1
f 409/11/1 410/12/1 411/13/1 412/7/1
f 413/7/1 414/13/1 415/24/1 416/8/1
f 417/7/1 418/13/1 419/24/1 420/8/1
f 421/14/1 422/11/1 423/7/1 424/5/1
f 425/9/1 426/10/1 427/2/1 428/1/1
f 429/7/1 430/13/1 431/24/1 432/8/1
f 433/14/1 434/11/1 435/7/1 436/5/1
f 437/9/1 438/10/1 439/2/1 440/1/1
f 441/11/1 442/12/1 443/13/1 444/7/1
f 445/11/1 446/12/1 447/13/1 448/7/1
f 449/7/1 450/13/1 451/24/1 452/8/1
f 453/7/1 454/13/1 455/24/1 456/8/1
f 457/18/1 458/23/1 459/12/1 460/11/1
f 461/18/1 462/23/1 463/12/1 464/11/1
f 465/14/1 466/11/1 467/7/1 468/5/1
f 469/11/1 470/12/1 471/13/1 472/7/1
f 473/7/1 474/13/1 475/24/1 476/8/1
f 477/7/1 478/13/1 479/24/1 480/8/1
f 481/11/1 482/12/1 483/13/1 484/7/1
f 485/15/1 486/16/1 487/10/1 488/9/1
f 489/16/1 490/17/1 491/14/1 492/10/1
f 493/17/1 494/18/1 495/11/1 496/14/1
f 497/15/1 498/16/1 499/10/1 500/9/1
f 501/16/1 502/17/1 503/14/1 504/10/1
f 505/16/1 506/17/1 507/14/1 508/10/1
f 509/16/1 510/17/1 511/14/1 512/10/1
f 513/16/1 514/17/1 515/14/1 516/10/1
f 517/16/1 518/17/1 519/14/1 520/10/1
f 521/16/1 522/17/1 523/14/1 524/10/1
f 525/17/1 526/18/1 527/11/1 528/14/1
f 529/18/1 530/23/1 531/12/1 532/11/1
f 533/7/1 534/13/1 535/24/1 536/8/1
f 537/18/1 538/23/1 539/12/1 540/11/1
f 541/18/1 542/23/1 543/12/1 544/11/1
f 545/1/1 546/2/1 547/3/1 548/4/1
f 549/2/1 550/5/1 551/6/1 552/3/1
f 553/2/1 554/5/1 555/6/1 556/3/1
f 557/2/1 558/5/1 559/6/1 560/3/1
f 561/5/1 562/7/1 563/8/1 564/6/1
f 565/7/1 566/13/1 567/24/1 568/8/1
f 569/9/1 570/10/1 571/2/1 572/1/1
f 573/10/1 574/14/1 575/5/1 576/2/1
f 577/18/1 578/23/1 579/12/1 580/11/1
f 581/10/1 582/14/1 583/5/1 584/2/1
f 585/14/1 586/11/1 587/7/1 588/5/1
f 589/18/1 590/23/1 591/12/1 592/11/1
f 593/11/1 594/12/1 595/13/1 596/7/1
f 597/10/1 598/14/1 599/5/1 600/2/1
f 601/11/1 602/12/1 603/13/1 604/7/1
f 605/9/1 606/10/1 607/2/1 608/1/1
f 609/10/1 610/14/1 611/5/1 612/2/1
f 613/10/1 614/14/1 615/5/1 616/2/1
f 617/10/1 618/14/1 619/5/1 620/2/1
f 621/14/1 622/11/1 623/7/1 624/5/1
f 625/18/1 626/23/1 627/12/1 628/11/1
f 629/18/1 630/23/1 631/12/1 632/11/1
f 633/11/1 634/12/1 635/13/1 636/7/1
f 637/7/1 638/13/1 639/24/1 640/8/1
f 641/9/1 642/10/1 643/2/1 644/1/1
f 645/7/1 646/13/1 647/24/1 648/8/1
f 649/7/1 650/13/1 651/24/1 652/8/1
f 653/18/1 654/23/1 655/12/1 656/11/1
f 657/27/1 658/28/1 659/26/1 660/25/1
f 661/2/1 662/5/1 663/6/1 664/3/1
f 665/10/1 666/14/1 667/5/1 668/2/1
f 669/18/1 670/23/1 671/12/1 672/11/1
f 673/7/1 674/13/1 675/24/1 676/8/1
f 677/2/1 678/5/1 679/6/1 680/3/1
f 681/10/1 682/14/1 683/5/1 684/2/1
f 685/7/1 686/13/1 687/24/1 688/8/1
f 689/11/1 690/12/1 691/13/1 692/7/1
f 693/2/1 694/5/1 695/6/1 696/3/1
f 697/11/1 698/12/1 699/13/1 700/7/1
f 701/2/1 702/5/1 703/6/1 704/3/1
f 705/10/1 706/14/1 707/5/1 708/2/1
f 709/10/1 710/14/1 711/5/1 712/2/1
f 713/10/1 714/14/1 715/5/1 716/2/1
f 717/7/1 718/13/1 719/24/1 720/8/1
f 721/11/1 722/12/1 723/13/1 724/7/1
f 725/9/1 726/10/1 727/2/1 728/1/1
f 729/7/1 730/13/1 731/24/1 732/8/1
f 733/11/1 734/12/1 735/13/1 736/7/1
f 737/11/1 738/12/1 739/13/1 740/7/1
f 741/11/1 742/12/1 743/13/1 744/7/1
f 745/10/1 746/14/1 747/5/1 748/2/1
f 749/7/1 750/13/1 751/24/1 752/8/1
f 753/7/1 754/13/1 755/24/1 756/8/1
f 757/11/1 758/12/1 759/13/1 760/7/1
f 761/10/1 762/14/1 763/5/1 764/2/1
f 765/18/1 766/23/1 767/12/1 768/11/1
f 769/10/1 770/14/1 771/5/1 772/2/1
f 773/11/1 774/12/1 775/13/1 776/7/1
f 777/10/1 778/14/1 779/5/1 780/2/1
f 781/11/1 782/12/1 783/13/1 784/7/1
f 785/7/1 786/13/1 787/24/1 788/8/1
f 789/18/1 790/23/1 791/12/1 792/11/1
f 793/18/1 794/23/1 795/12/1 796/11/1
f 797/14/1 798/11/1 799/7/1 800/5/1
f 801/11/1 802/12/1 803/13/1 804/7/1
f 805/15/1 806/16/1 807/10/1 808/9/1
f 809/16/1 810/17/1 811/14/1 812/10/1
f 813/16/1 814/17/1 815/14/1 816/10/1
f 817/16/1 818/17/1 819/14/1 820/10/1
f 821/16/1 822/17/1 823/14/1 824/10/1
f 825/16/1 826/17/1 827/14/1 828/10/1
f 829/16/1 830/17/1 831/14/1 832/10/1
f 833/16/1 834/17/1 835/14/1 836/10/1
f 837/16/1 838/17/1 839/14/1 840/10/1
f 841/16/1 842/17/1 843/14/1 844/10/1
f 845/16/1 846/17/1 847/14/1 848/10/1
f 849/16/1 850/17/1 851/14/1 852/10/1
f 853/16/1 854/17/1 855/14/1 856/10/1
f 857/16/1 858/17/1 859/14/1 860/10/1
f 861/16/1 862/17/1 863/14/1 864/10/1
f 865/16/1 866/17/1 867/14/1 868/10/1
f 869/16/1 870/17/1 871/14/1 872/10/1
f 873/16/1 874/17/1 875/14/1 876/10/1
f 877/17/1 878/18/1 879/11/1 880/14/1
f 881/10/1 882/14/1 883/5/1 884/2/1

