# Tiled2Unity generated file. Do not modify by hand.
# Wavefront file for 'LB_BottomPoint_mesh_0001.obj'

# Vertices (Count = 324)
v -768 -256 0
v -800 -256 0
v -800 -224 0
v -768 -224 0
v -800 -256 0
v -832 -256 0
v -832 -224 0
v -800 -224 0
v -832 -256 0
v -864 -256 0
v -864 -224 0
v -832 -224 0
v -864 -256 0
v -896 -256 0
v -896 -224 0
v -864 -224 0
v -896 -256 0
v -928 -256 0
v -928 -224 0
v -896 -224 0
v -928 -256 0
v -960 -256 0
v -960 -224 0
v -928 -224 0
v -1024 -256 0
v -1056 -256 0
v -1056 -224 0
v -1024 -224 0
v -1056 -256 0
v -1088 -256 0
v -1088 -224 0
v -1056 -224 0
v -1120 -256 0
v -1152 -256 0
v -1152 -224 0
v -1120 -224 0
v -1152 -256 0
v -1184 -256 0
v -1184 -224 0
v -1152 -224 0
v -1184 -256 0
v -1216 -256 0
v -1216 -224 0
v -1184 -224 0
v -1216 -256 0
v -1248 -256 0
v -1248 -224 0
v -1216 -224 0
v -1248 -256 0
v -1280 -256 0
v -1280 -224 0
v -1248 -224 0
v -1280 -256 0
v -1312 -256 0
v -1312 -224 0
v -1280 -224 0
v -1312 -256 0
v -1344 -256 0
v -1344 -224 0
v -1312 -224 0
v -1344 -256 0
v -1376 -256 0
v -1376 -224 0
v -1344 -224 0
v -1376 -256 0
v -1408 -256 0
v -1408 -224 0
v -1376 -224 0
v -1408 -256 0
v -1440 -256 0
v -1440 -224 0
v -1408 -224 0
v -1440 -256 0
v -1472 -256 0
v -1472 -224 0
v -1440 -224 0
v -1472 -256 0
v -1504 -256 0
v -1504 -224 0
v -1472 -224 0
v -704 -288 0
v -736 -288 0
v -736 -256 0
v -704 -256 0
v -768 -288 0
v -800 -288 0
v -800 -256 0
v -768 -256 0
v -800 -288 0
v -832 -288 0
v -832 -256 0
v -800 -256 0
v -832 -288 0
v -864 -288 0
v -864 -256 0
v -832 -256 0
v -864 -288 0
v -896 -288 0
v -896 -256 0
v -864 -256 0
v -896 -288 0
v -928 -288 0
v -928 -256 0
v -896 -256 0
v -928 -288 0
v -960 -288 0
v -960 -256 0
v -928 -256 0
v -1024 -288 0
v -1056 -288 0
v -1056 -256 0
v -1024 -256 0
v -1056 -288 0
v -1088 -288 0
v -1088 -256 0
v -1056 -256 0
v -1120 -288 0
v -1152 -288 0
v -1152 -256 0
v -1120 -256 0
v -1152 -288 0
v -1184 -288 0
v -1184 -256 0
v -1152 -256 0
v -1184 -288 0
v -1216 -288 0
v -1216 -256 0
v -1184 -256 0
v -1216 -288 0
v -1248 -288 0
v -1248 -256 0
v -1216 -256 0
v -1248 -288 0
v -1280 -288 0
v -1280 -256 0
v -1248 -256 0
v -1280 -288 0
v -1312 -288 0
v -1312 -256 0
v -1280 -256 0
v -1312 -288 0
v -1344 -288 0
v -1344 -256 0
v -1312 -256 0
v -1344 -288 0
v -1376 -288 0
v -1376 -256 0
v -1344 -256 0
v -1376 -288 0
v -1408 -288 0
v -1408 -256 0
v -1376 -256 0
v -1408 -288 0
v -1440 -288 0
v -1440 -256 0
v -1408 -256 0
v -1440 -288 0
v -1472 -288 0
v -1472 -256 0
v -1440 -256 0
v -1472 -288 0
v -1504 -288 0
v -1504 -256 0
v -1472 -256 0
v -672 -320 0
v -704 -320 0
v -704 -288 0
v -672 -288 0
v -704 -320 0
v -736 -320 0
v -736 -288 0
v -704 -288 0
v -768 -320 0
v -800 -320 0
v -800 -288 0
v -768 -288 0
v -800 -320 0
v -832 -320 0
v -832 -288 0
v -800 -288 0
v -832 -320 0
v -864 -320 0
v -864 -288 0
v -832 -288 0
v -864 -320 0
v -896 -320 0
v -896 -288 0
v -864 -288 0
v -896 -320 0
v -928 -320 0
v -928 -288 0
v -896 -288 0
v -928 -320 0
v -960 -320 0
v -960 -288 0
v -928 -288 0
v -1024 -320 0
v -1056 -320 0
v -1056 -288 0
v -1024 -288 0
v -1056 -320 0
v -1088 -320 0
v -1088 -288 0
v -1056 -288 0
v -640 -352 0
v -672 -352 0
v -672 -320 0
v -640 -320 0
v -672 -352 0
v -704 -352 0
v -704 -320 0
v -672 -320 0
v -704 -352 0
v -736 -352 0
v -736 -320 0
v -704 -320 0
v -896 -352 0
v -928 -352 0
v -928 -320 0
v -896 -320 0
v -928 -352 0
v -960 -352 0
v -960 -320 0
v -928 -320 0
v -960 -352 0
v -992 -352 0
v -992 -320 0
v -960 -320 0
v -1024 -352 0
v -1056 -352 0
v -1056 -320 0
v -1024 -320 0
v -1056 -352 0
v -1088 -352 0
v -1088 -320 0
v -1056 -320 0
v -640 -384 0
v -672 -384 0
v -672 -352 0
v -640 -352 0
v -672 -384 0
v -704 -384 0
v -704 -352 0
v -672 -352 0
v -704 -384 0
v -736 -384 0
v -736 -352 0
v -704 -352 0
v -896 -384 0
v -928 -384 0
v -928 -352 0
v -896 -352 0
v -928 -384 0
v -960 -384 0
v -960 -352 0
v -928 -352 0
v -960 -384 0
v -992 -384 0
v -992 -352 0
v -960 -352 0
v -256 -416 0
v -288 -416 0
v -288 -384 0
v -256 -384 0
v -288 -416 0
v -320 -416 0
v -320 -384 0
v -288 -384 0
v -512 -416 0
v -544 -416 0
v -544 -384 0
v -512 -384 0
v -544 -416 0
v -576 -416 0
v -576 -384 0
v -544 -384 0
v -640 -416 0
v -672 -416 0
v -672 -384 0
v -640 -384 0
v -672 -416 0
v -704 -416 0
v -704 -384 0
v -672 -384 0
v -928 -416 0
v -960 -416 0
v -960 -384 0
v -928 -384 0
v -960 -416 0
v -992 -416 0
v -992 -384 0
v -960 -384 0
v -256 -448 0
v -288 -448 0
v -288 -416 0
v -256 -416 0
v -288 -448 0
v -320 -448 0
v -320 -416 0
v -288 -416 0
v -512 -448 0
v -544 -448 0
v -544 -416 0
v -512 -416 0
v -544 -448 0
v -576 -448 0
v -576 -416 0
v -544 -416 0
v -256 -480 0
v -288 -480 0
v -288 -448 0
v -256 -448 0
v -288 -480 0
v -320 -480 0
v -320 -448 0
v -288 -448 0
v -512 -480 0
v -544 -480 0
v -544 -448 0
v -512 -448 0
v -544 -480 0
v -576 -480 0
v -576 -448 0
v -544 -448 0

# Texture cooridinates (Count = 6)
vt 0 0
vt 0.1 0
vt 0.1 0.3333333
vt 0 0.3333333
vt 0.1 0.6666666
vt 0 0.6666666

# Normal
vn 0 0 -1

# Mesh description
g LB_BottomPoint_mesh_0001

# Faces
f 1/1/1 2/2/1 3/3/1 4/4/1
f 5/1/1 6/2/1 7/3/1 8/4/1
f 9/1/1 10/2/1 11/3/1 12/4/1
f 13/1/1 14/2/1 15/3/1 16/4/1
f 17/1/1 18/2/1 19/3/1 20/4/1
f 21/1/1 22/2/1 23/3/1 24/4/1
f 25/1/1 26/2/1 27/3/1 28/4/1
f 29/1/1 30/2/1 31/3/1 32/4/1
f 33/4/1 34/3/1 35/5/1 36/6/1
f 37/4/1 38/3/1 39/5/1 40/6/1
f 41/4/1 42/3/1 43/5/1 44/6/1
f 45/4/1 46/3/1 47/5/1 48/6/1
f 49/4/1 50/3/1 51/5/1 52/6/1
f 53/4/1 54/3/1 55/5/1 56/6/1
f 57/4/1 58/3/1 59/5/1 60/6/1
f 61/4/1 62/3/1 63/5/1 64/6/1
f 65/4/1 66/3/1 67/5/1 68/6/1
f 69/4/1 70/3/1 71/5/1 72/6/1
f 73/4/1 74/3/1 75/5/1 76/6/1
f 77/4/1 78/3/1 79/5/1 80/6/1
f 81/1/1 82/2/1 83/3/1 84/4/1
f 85/1/1 86/2/1 87/3/1 88/4/1
f 89/1/1 90/2/1 91/3/1 92/4/1
f 93/1/1 94/2/1 95/3/1 96/4/1
f 97/1/1 98/2/1 99/3/1 100/4/1
f 101/1/1 102/2/1 103/3/1 104/4/1
f 105/1/1 106/2/1 107/3/1 108/4/1
f 109/1/1 110/2/1 111/3/1 112/4/1
f 113/1/1 114/2/1 115/3/1 116/4/1
f 117/4/1 118/3/1 119/5/1 120/6/1
f 121/4/1 122/3/1 123/5/1 124/6/1
f 125/4/1 126/3/1 127/5/1 128/6/1
f 129/4/1 130/3/1 131/5/1 132/6/1
f 133/4/1 134/3/1 135/5/1 136/6/1
f 137/4/1 138/3/1 139/5/1 140/6/1
f 141/4/1 142/3/1 143/5/1 144/6/1
f 145/4/1 146/3/1 147/5/1 148/6/1
f 149/4/1 150/3/1 151/5/1 152/6/1
f 153/4/1 154/3/1 155/5/1 156/6/1
f 157/4/1 158/3/1 159/5/1 160/6/1
f 161/4/1 162/3/1 163/5/1 164/6/1
f 165/1/1 166/2/1 167/3/1 168/4/1
f 169/1/1 170/2/1 171/3/1 172/4/1
f 173/1/1 174/2/1 175/3/1 176/4/1
f 177/1/1 178/2/1 179/3/1 180/4/1
f 181/1/1 182/2/1 183/3/1 184/4/1
f 185/1/1 186/2/1 187/3/1 188/4/1
f 189/1/1 190/2/1 191/3/1 192/4/1
f 193/1/1 194/2/1 195/3/1 196/4/1
f 197/1/1 198/2/1 199/3/1 200/4/1
f 201/1/1 202/2/1 203/3/1 204/4/1
f 205/1/1 206/2/1 207/3/1 208/4/1
f 209/1/1 210/2/1 211/3/1 212/4/1
f 213/1/1 214/2/1 215/3/1 216/4/1
f 217/1/1 218/2/1 219/3/1 220/4/1
f 221/1/1 222/2/1 223/3/1 224/4/1
f 225/1/1 226/2/1 227/3/1 228/4/1
f 229/1/1 230/2/1 231/3/1 232/4/1
f 233/1/1 234/2/1 235/3/1 236/4/1
f 237/1/1 238/2/1 239/3/1 240/4/1
f 241/1/1 242/2/1 243/3/1 244/4/1
f 245/1/1 246/2/1 247/3/1 248/4/1
f 249/1/1 250/2/1 251/3/1 252/4/1
f 253/1/1 254/2/1 255/3/1 256/4/1
f 257/1/1 258/2/1 259/3/1 260/4/1
f 261/4/1 262/3/1 263/5/1 264/6/1
f 265/4/1 266/3/1 267/5/1 268/6/1
f 269/4/1 270/3/1 271/5/1 272/6/1
f 273/4/1 274/3/1 275/5/1 276/6/1
f 277/1/1 278/2/1 279/3/1 280/4/1
f 281/1/1 282/2/1 283/3/1 284/4/1
f 285/1/1 286/2/1 287/3/1 288/4/1
f 289/1/1 290/2/1 291/3/1 292/4/1
f 293/4/1 294/3/1 295/5/1 296/6/1
f 297/4/1 298/3/1 299/5/1 300/6/1
f 301/4/1 302/3/1 303/5/1 304/6/1
f 305/4/1 306/3/1 307/5/1 308/6/1
f 309/4/1 310/3/1 311/5/1 312/6/1
f 313/4/1 314/3/1 315/5/1 316/6/1
f 317/4/1 318/3/1 319/5/1 320/6/1
f 321/4/1 322/3/1 323/5/1 324/6/1

