# Tiled2Unity generated file. Do not modify by hand.
# Wavefront file for 'LB_Outskirts_mesh_0004.obj'

# Vertices (Count = 424)
v -320 -320 0
v -352 -320 0
v -352 -288 0
v -320 -288 0
v -320 -352 0
v -352 -352 0
v -352 -320 0
v -320 -320 0
v -320 -384 0
v -352 -384 0
v -352 -352 0
v -320 -352 0
v -320 -416 0
v -352 -416 0
v -352 -384 0
v -320 -384 0
v -320 -448 0
v -352 -448 0
v -352 -416 0
v -320 -416 0
v -320 -480 0
v -352 -480 0
v -352 -448 0
v -320 -448 0
v -320 -512 0
v -352 -512 0
v -352 -480 0
v -320 -480 0
v -320 -544 0
v -352 -544 0
v -352 -512 0
v -320 -512 0
v -1088 -576 0
v -1120 -576 0
v -1120 -544 0
v -1088 -544 0
v -1184 -576 0
v -1216 -576 0
v -1216 -544 0
v -1184 -544 0
v -1088 -608 0
v -1120 -608 0
v -1120 -576 0
v -1088 -576 0
v -1120 -608 0
v -1152 -608 0
v -1152 -576 0
v -1120 -576 0
v -1152 -608 0
v -1184 -608 0
v -1184 -576 0
v -1152 -576 0
v -1184 -608 0
v -1216 -608 0
v -1216 -576 0
v -1184 -576 0
v -1376 -640 0
v -1408 -640 0
v -1408 -608 0
v -1376 -608 0
v -1408 -640 0
v -1440 -640 0
v -1440 -608 0
v -1408 -608 0
v -1440 -640 0
v -1472 -640 0
v -1472 -608 0
v -1440 -608 0
v -1472 -640 0
v -1504 -640 0
v -1504 -608 0
v -1472 -608 0
v -1504 -640 0
v -1536 -640 0
v -1536 -608 0
v -1504 -608 0
v -1536 -640 0
v -1568 -640 0
v -1568 -608 0
v -1536 -608 0
v -1568 -640 0
v -1600 -640 0
v -1600 -608 0
v -1568 -608 0
v -1376 -672 0
v -1408 -672 0
v -1408 -640 0
v -1376 -640 0
v -1408 -672 0
v -1440 -672 0
v -1440 -640 0
v -1408 -640 0
v -1440 -672 0
v -1472 -672 0
v -1472 -640 0
v -1440 -640 0
v -1472 -672 0
v -1504 -672 0
v -1504 -640 0
v -1472 -640 0
v -1504 -672 0
v -1536 -672 0
v -1536 -640 0
v -1504 -640 0
v -1536 -672 0
v -1568 -672 0
v -1568 -640 0
v -1536 -640 0
v -1568 -672 0
v -1600 -672 0
v -1600 -640 0
v -1568 -640 0
v -1376 -704 0
v -1408 -704 0
v -1408 -672 0
v -1376 -672 0
v -1408 -704 0
v -1440 -704 0
v -1440 -672 0
v -1408 -672 0
v -1440 -704 0
v -1472 -704 0
v -1472 -672 0
v -1440 -672 0
v -1472 -704 0
v -1504 -704 0
v -1504 -672 0
v -1472 -672 0
v -1504 -704 0
v -1536 -704 0
v -1536 -672 0
v -1504 -672 0
v -1536 -704 0
v -1568 -704 0
v -1568 -672 0
v -1536 -672 0
v -1568 -704 0
v -1600 -704 0
v -1600 -672 0
v -1568 -672 0
v -1120 -736 0
v -1152 -736 0
v -1152 -704 0
v -1120 -704 0
v -1152 -736 0
v -1184 -736 0
v -1184 -704 0
v -1152 -704 0
v -1184 -736 0
v -1216 -736 0
v -1216 -704 0
v -1184 -704 0
v -1376 -736 0
v -1408 -736 0
v -1408 -704 0
v -1376 -704 0
v -1472 -736 0
v -1504 -736 0
v -1504 -704 0
v -1472 -704 0
v -1568 -736 0
v -1600 -736 0
v -1600 -704 0
v -1568 -704 0
v -1120 -768 0
v -1152 -768 0
v -1152 -736 0
v -1120 -736 0
v -1152 -768 0
v -1184 -768 0
v -1184 -736 0
v -1152 -736 0
v -1184 -768 0
v -1216 -768 0
v -1216 -736 0
v -1184 -736 0
v -1376 -768 0
v -1408 -768 0
v -1408 -736 0
v -1376 -736 0
v -1472 -768 0
v -1504 -768 0
v -1504 -736 0
v -1472 -736 0
v -1568 -768 0
v -1600 -768 0
v -1600 -736 0
v -1568 -736 0
v -1120 -800 0
v -1152 -800 0
v -1152 -768 0
v -1120 -768 0
v -1152 -800 0
v -1184 -800 0
v -1184 -768 0
v -1152 -768 0
v -1184 -800 0
v -1216 -800 0
v -1216 -768 0
v -1184 -768 0
v -1376 -800 0
v -1408 -800 0
v -1408 -768 0
v -1376 -768 0
v -1472 -800 0
v -1504 -800 0
v -1504 -768 0
v -1472 -768 0
v -1568 -800 0
v -1600 -800 0
v -1600 -768 0
v -1568 -768 0
v -1120 -832 0
v -1152 -832 0
v -1152 -800 0
v -1120 -800 0
v -1152 -832 0
v -1184 -832 0
v -1184 -800 0
v -1152 -800 0
v -1184 -832 0
v -1216 -832 0
v -1216 -800 0
v -1184 -800 0
v -1216 -832 0
v -1248 -832 0
v -1248 -800 0
v -1216 -800 0
v -1248 -832 0
v -1280 -832 0
v -1280 -800 0
v -1248 -800 0
v -1376 -832 0
v -1408 -832 0
v -1408 -800 0
v -1376 -800 0
v -1472 -832 0
v -1504 -832 0
v -1504 -800 0
v -1472 -800 0
v -1568 -832 0
v -1600 -832 0
v -1600 -800 0
v -1568 -800 0
v -1120 -864 0
v -1152 -864 0
v -1152 -832 0
v -1120 -832 0
v -1152 -864 0
v -1184 -864 0
v -1184 -832 0
v -1152 -832 0
v -1184 -864 0
v -1216 -864 0
v -1216 -832 0
v -1184 -832 0
v -1216 -864 0
v -1248 -864 0
v -1248 -832 0
v -1216 -832 0
v -1248 -864 0
v -1280 -864 0
v -1280 -832 0
v -1248 -832 0
v -1280 -864 0
v -1312 -864 0
v -1312 -832 0
v -1280 -832 0
v -1312 -864 0
v -1344 -864 0
v -1344 -832 0
v -1312 -832 0
v -1344 -864 0
v -1376 -864 0
v -1376 -832 0
v -1344 -832 0
v -1376 -864 0
v -1408 -864 0
v -1408 -832 0
v -1376 -832 0
v -1408 -864 0
v -1440 -864 0
v -1440 -832 0
v -1408 -832 0
v -1440 -864 0
v -1472 -864 0
v -1472 -832 0
v -1440 -832 0
v -1472 -864 0
v -1504 -864 0
v -1504 -832 0
v -1472 -832 0
v -1504 -864 0
v -1536 -864 0
v -1536 -832 0
v -1504 -832 0
v -1536 -864 0
v -1568 -864 0
v -1568 -832 0
v -1536 -832 0
v -1568 -864 0
v -1600 -864 0
v -1600 -832 0
v -1568 -832 0
v -1120 -896 0
v -1152 -896 0
v -1152 -864 0
v -1120 -864 0
v -1152 -896 0
v -1184 -896 0
v -1184 -864 0
v -1152 -864 0
v -1184 -896 0
v -1216 -896 0
v -1216 -864 0
v -1184 -864 0
v -1216 -896 0
v -1248 -896 0
v -1248 -864 0
v -1216 -864 0
v -1248 -896 0
v -1280 -896 0
v -1280 -864 0
v -1248 -864 0
v -1280 -896 0
v -1312 -896 0
v -1312 -864 0
v -1280 -864 0
v -1312 -896 0
v -1344 -896 0
v -1344 -864 0
v -1312 -864 0
v -1344 -896 0
v -1376 -896 0
v -1376 -864 0
v -1344 -864 0
v -1376 -896 0
v -1408 -896 0
v -1408 -864 0
v -1376 -864 0
v -1408 -896 0
v -1440 -896 0
v -1440 -864 0
v -1408 -864 0
v -1440 -896 0
v -1472 -896 0
v -1472 -864 0
v -1440 -864 0
v -1472 -896 0
v -1504 -896 0
v -1504 -864 0
v -1472 -864 0
v -1504 -896 0
v -1536 -896 0
v -1536 -864 0
v -1504 -864 0
v -1536 -896 0
v -1568 -896 0
v -1568 -864 0
v -1536 -864 0
v -1568 -896 0
v -1600 -896 0
v -1600 -864 0
v -1568 -864 0
v -1120 -928 0
v -1152 -928 0
v -1152 -896 0
v -1120 -896 0
v -1152 -928 0
v -1184 -928 0
v -1184 -896 0
v -1152 -896 0
v -1184 -928 0
v -1216 -928 0
v -1216 -896 0
v -1184 -896 0
v -1216 -928 0
v -1248 -928 0
v -1248 -896 0
v -1216 -896 0
v -1248 -928 0
v -1280 -928 0
v -1280 -896 0
v -1248 -896 0
v -1280 -928 0
v -1312 -928 0
v -1312 -896 0
v -1280 -896 0
v -1312 -928 0
v -1344 -928 0
v -1344 -896 0
v -1312 -896 0
v -1344 -928 0
v -1376 -928 0
v -1376 -896 0
v -1344 -896 0
v -1376 -928 0
v -1408 -928 0
v -1408 -896 0
v -1376 -896 0
v -1408 -928 0
v -1440 -928 0
v -1440 -896 0
v -1408 -896 0
v -1440 -928 0
v -1472 -928 0
v -1472 -896 0
v -1440 -896 0
v -1472 -928 0
v -1504 -928 0
v -1504 -896 0
v -1472 -896 0
v -1504 -928 0
v -1536 -928 0
v -1536 -896 0
v -1504 -896 0
v -1536 -928 0
v -1568 -928 0
v -1568 -896 0
v -1536 -896 0
v -1568 -928 0
v -1600 -928 0
v -1600 -896 0
v -1568 -896 0

# Texture cooridinates (Count = 53)
vt 0.5 0.6
vt 0.6 0.6
vt 0.6 0.7
vt 0.5 0.7
vt 0.5 0.4
vt 0.6 0.4
vt 0.6 0.5
vt 0.5 0.5
vt 0.7 0.6
vt 0.7 0.7
vt 0.8 0.6
vt 0.8 0.7
vt 0.9 0.6
vt 0.9 0.7
vt 0.3 0.9
vt 0.4 0.9
vt 0.4 1
vt 0.3 1
vt 0.5 0.9
vt 0.5 1
vt 0.6 0.9
vt 0.6 1
vt 0.3 0.8
vt 0.4 0.8
vt 0.6 0.8
vt 0.7 0.8
vt 0.7 0.9
vt 0.5 0.8
vt 0.3 0.7
vt 0.4 0.7
vt 0 0.9
vt 0.1 0.9
vt 0.1 1
vt 0 1
vt 0.2 0.9
vt 0.2 1
vt 0.9 0.9
vt 1 0.9
vt 1 1
vt 0.9 1
vt 0 0.8
vt 0.1 0.8
vt 0.2 0.8
vt 0.9 0.8
vt 1 0.8
vt 0 0.5
vt 0.1 0.5
vt 0.1 0.6
vt 0 0.6
vt 1 0.7
vt 0 0.7
vt 0.1 0.7
vt 0.2 0.7

# Normal
vn 0 0 -1

# Mesh description
g LB_Outskirts_mesh_0004

# Faces
f 1/1/1 2/2/1 3/3/1 4/4/1
f 5/5/1 6/6/1 7/7/1 8/8/1
f 9/1/1 10/2/1 11/3/1 12/4/1
f 13/5/1 14/6/1 15/7/1 16/8/1
f 17/1/1 18/2/1 19/3/1 20/4/1
f 21/5/1 22/6/1 23/7/1 24/8/1
f 25/1/1 26/2/1 27/3/1 28/4/1
f 29/5/1 30/6/1 31/7/1 32/8/1
f 33/1/1 34/2/1 35/3/1 36/4/1
f 37/1/1 38/2/1 39/3/1 40/4/1
f 41/2/1 42/9/1 43/10/1 44/3/1
f 45/9/1 46/11/1 47/12/1 48/10/1
f 49/9/1 50/11/1 51/12/1 52/10/1
f 53/11/1 54/13/1 55/14/1 56/12/1
f 57/15/1 58/16/1 59/17/1 60/18/1
f 61/16/1 62/19/1 63/20/1 64/17/1
f 65/16/1 66/19/1 67/20/1 68/17/1
f 69/16/1 70/19/1 71/20/1 72/17/1
f 73/16/1 74/19/1 75/20/1 76/17/1
f 77/16/1 78/19/1 79/20/1 80/17/1
f 81/19/1 82/21/1 83/22/1 84/20/1
f 85/23/1 86/24/1 87/16/1 88/15/1
f 89/25/1 90/26/1 91/27/1 92/21/1
f 93/24/1 94/28/1 95/19/1 96/16/1
f 97/24/1 98/28/1 99/19/1 100/16/1
f 101/24/1 102/28/1 103/19/1 104/16/1
f 105/25/1 106/26/1 107/27/1 108/21/1
f 109/28/1 110/25/1 111/21/1 112/19/1
f 113/29/1 114/30/1 115/24/1 116/23/1
f 117/30/1 118/4/1 119/28/1 120/24/1
f 121/30/1 122/4/1 123/28/1 124/24/1
f 125/30/1 126/4/1 127/28/1 128/24/1
f 129/30/1 130/4/1 131/28/1 132/24/1
f 133/30/1 134/4/1 135/28/1 136/24/1
f 137/4/1 138/3/1 139/25/1 140/28/1
f 141/31/1 142/32/1 143/33/1 144/34/1
f 145/32/1 146/35/1 147/36/1 148/33/1
f 149/35/1 150/15/1 151/18/1 152/36/1
f 153/37/1 154/38/1 155/39/1 156/40/1
f 157/37/1 158/38/1 159/39/1 160/40/1
f 161/37/1 162/38/1 163/39/1 164/40/1
f 165/41/1 166/42/1 167/32/1 168/31/1
f 169/42/1 170/43/1 171/35/1 172/32/1
f 173/43/1 174/23/1 175/15/1 176/35/1
f 177/44/1 178/45/1 179/38/1 180/37/1
f 181/44/1 182/45/1 183/38/1 184/37/1
f 185/44/1 186/45/1 187/38/1 188/37/1
f 189/41/1 190/42/1 191/32/1 192/31/1
f 193/42/1 194/43/1 195/35/1 196/32/1
f 197/43/1 198/23/1 199/15/1 200/35/1
f 201/44/1 202/45/1 203/38/1 204/37/1
f 205/44/1 206/45/1 207/38/1 208/37/1
f 209/44/1 210/45/1 211/38/1 212/37/1
f 213/41/1 214/42/1 215/32/1 216/31/1
f 217/42/1 218/43/1 219/35/1 220/32/1
f 221/46/1 222/47/1 223/48/1 224/49/1
f 225/32/1 226/35/1 227/36/1 228/33/1
f 229/35/1 230/15/1 231/18/1 232/36/1
f 233/14/1 234/50/1 235/45/1 236/44/1
f 237/14/1 238/50/1 239/45/1 240/44/1
f 241/14/1 242/50/1 243/45/1 244/44/1
f 245/41/1 246/42/1 247/32/1 248/31/1
f 249/42/1 250/43/1 251/35/1 252/32/1
f 253/42/1 254/43/1 255/35/1 256/32/1
f 257/42/1 258/43/1 259/35/1 260/32/1
f 261/46/1 262/47/1 263/48/1 264/49/1
f 265/32/1 266/35/1 267/36/1 268/33/1
f 269/32/1 270/35/1 271/36/1 272/33/1
f 273/32/1 274/35/1 275/36/1 276/33/1
f 277/32/1 278/35/1 279/36/1 280/33/1
f 281/32/1 282/35/1 283/36/1 284/33/1
f 285/32/1 286/35/1 287/36/1 288/33/1
f 289/32/1 290/35/1 291/36/1 292/33/1
f 293/32/1 294/35/1 295/36/1 296/33/1
f 297/32/1 298/35/1 299/36/1 300/33/1
f 301/32/1 302/35/1 303/36/1 304/33/1
f 305/41/1 306/42/1 307/32/1 308/31/1
f 309/42/1 310/43/1 311/35/1 312/32/1
f 313/42/1 314/43/1 315/35/1 316/32/1
f 317/42/1 318/43/1 319/35/1 320/32/1
f 321/42/1 322/43/1 323/35/1 324/32/1
f 325/42/1 326/43/1 327/35/1 328/32/1
f 329/42/1 330/43/1 331/35/1 332/32/1
f 333/42/1 334/43/1 335/35/1 336/32/1
f 337/42/1 338/43/1 339/35/1 340/32/1
f 341/42/1 342/43/1 343/35/1 344/32/1
f 345/42/1 346/43/1 347/35/1 348/32/1
f 349/42/1 350/43/1 351/35/1 352/32/1
f 353/42/1 354/43/1 355/35/1 356/32/1
f 357/42/1 358/43/1 359/35/1 360/32/1
f 361/42/1 362/43/1 363/35/1 364/32/1
f 365/51/1 366/52/1 367/42/1 368/41/1
f 369/52/1 370/53/1 371/43/1 372/42/1
f 373/52/1 374/53/1 375/43/1 376/42/1
f 377/52/1 378/53/1 379/43/1 380/42/1
f 381/52/1 382/53/1 383/43/1 384/42/1
f 385/52/1 386/53/1 387/43/1 388/42/1
f 389/52/1 390/53/1 391/43/1 392/42/1
f 393/52/1 394/53/1 395/43/1 396/42/1
f 397/52/1 398/53/1 399/43/1 400/42/1
f 401/52/1 402/53/1 403/43/1 404/42/1
f 405/52/1 406/53/1 407/43/1 408/42/1
f 409/52/1 410/53/1 411/43/1 412/42/1
f 413/52/1 414/53/1 415/43/1 416/42/1
f 417/52/1 418/53/1 419/43/1 420/42/1
f 421/52/1 422/53/1 423/43/1 424/42/1

