# Tiled2Unity generated file. Do not modify by hand.
# Wavefront file for 'CT_WaterMaze_mesh_0005.obj'

# Vertices (Count = 68)
v -160 -768 0
v -192 -768 0
v -192 -736 0
v -160 -736 0
v -384 -768 0
v -416 -768 0
v -416 -736 0
v -384 -736 0
v -1472 -768 0
v -1504 -768 0
v -1504 -736 0
v -1472 -736 0
v -1504 -768 0
v -1536 -768 0
v -1536 -736 0
v -1504 -736 0
v -1472 -832 0
v -1504 -832 0
v -1504 -800 0
v -1472 -800 0
v -1504 -832 0
v -1536 -832 0
v -1536 -800 0
v -1504 -800 0
v -1472 -896 0
v -1504 -896 0
v -1504 -864 0
v -1472 -864 0
v -1504 -896 0
v -1536 -896 0
v -1536 -864 0
v -1504 -864 0
v -1472 -960 0
v -1504 -960 0
v -1504 -928 0
v -1472 -928 0
v -1504 -960 0
v -1536 -960 0
v -1536 -928 0
v -1504 -928 0
v -320 -1120 0
v -352 -1120 0
v -352 -1088 0
v -320 -1088 0
v -352 -1152 0
v -384 -1152 0
v -384 -1120 0
v -352 -1120 0
v -384 -1184 0
v -416 -1184 0
v -416 -1152 0
v -384 -1152 0
v -416 -1216 0
v -448 -1216 0
v -448 -1184 0
v -416 -1184 0
v -448 -1248 0
v -480 -1248 0
v -480 -1216 0
v -448 -1216 0
v -480 -1280 0
v -512 -1280 0
v -512 -1248 0
v -480 -1248 0
v -512 -1312 0
v -544 -1312 0
v -544 -1280 0
v -512 -1280 0

# Texture cooridinates (Count = 10)
vt 0.8 0.5
vt 0.7 0.5
vt 0.7 0.6
vt 0.8 0.6
vt 0.6 0.5
vt 0.6 0.6
vt 0.7 0.7
vt 0.6 0.7
vt 0.6 0.8
vt 0.7 0.8

# Normal
vn 0 0 -1

# Mesh description
g CT_WaterMaze_mesh_0005

# Faces
f 1/1/1 2/2/1 3/3/1 4/4/1
f 5/1/1 6/2/1 7/3/1 8/4/1
f 9/5/1 10/2/1 11/3/1 12/6/1
f 13/5/1 14/2/1 15/3/1 16/6/1
f 17/5/1 18/2/1 19/3/1 20/6/1
f 21/5/1 22/2/1 23/3/1 24/6/1
f 25/5/1 26/2/1 27/3/1 28/6/1
f 29/5/1 30/2/1 31/3/1 32/6/1
f 33/5/1 34/2/1 35/3/1 36/6/1
f 37/5/1 38/2/1 39/3/1 40/6/1
f 41/7/1 42/8/1 43/9/1 44/10/1
f 45/7/1 46/8/1 47/9/1 48/10/1
f 49/7/1 50/8/1 51/9/1 52/10/1
f 53/7/1 54/8/1 55/9/1 56/10/1
f 57/7/1 58/8/1 59/9/1 60/10/1
f 61/7/1 62/8/1 63/9/1 64/10/1
f 65/7/1 66/8/1 67/9/1 68/10/1

