# Tiled2Unity generated file. Do not modify by hand.
# Wavefront file for 'CT_WaterMaze_mesh_0002.obj'

# Vertices (Count = 104)
v -1472 -736 0
v -1504 -736 0
v -1504 -704 0
v -1472 -704 0
v -1504 -736 0
v -1536 -736 0
v -1536 -704 0
v -1504 -704 0
v -1472 -800 0
v -1504 -800 0
v -1504 -768 0
v -1472 -768 0
v -1504 -800 0
v -1536 -800 0
v -1536 -768 0
v -1504 -768 0
v -64 -864 0
v -96 -864 0
v -96 -832 0
v -64 -832 0
v -96 -864 0
v -128 -864 0
v -128 -832 0
v -96 -832 0
v -1472 -864 0
v -1504 -864 0
v -1504 -832 0
v -1472 -832 0
v -1504 -864 0
v -1536 -864 0
v -1536 -832 0
v -1504 -832 0
v -64 -928 0
v -96 -928 0
v -96 -896 0
v -64 -896 0
v -96 -928 0
v -128 -928 0
v -128 -896 0
v -96 -896 0
v -1472 -928 0
v -1504 -928 0
v -1504 -896 0
v -1472 -896 0
v -1504 -928 0
v -1536 -928 0
v -1536 -896 0
v -1504 -896 0
v -64 -992 0
v -96 -992 0
v -96 -960 0
v -64 -960 0
v -96 -992 0
v -128 -992 0
v -128 -960 0
v -96 -960 0
v -320 -1088 0
v -352 -1088 0
v -352 -1056 0
v -320 -1056 0
v -352 -1088 0
v -384 -1088 0
v -384 -1056 0
v -352 -1056 0
v -384 -1088 0
v -416 -1088 0
v -416 -1056 0
v -384 -1056 0
v -416 -1088 0
v -448 -1088 0
v -448 -1056 0
v -416 -1056 0
v -448 -1088 0
v -480 -1088 0
v -480 -1056 0
v -448 -1056 0
v -320 -1120 0
v -352 -1120 0
v -352 -1088 0
v -320 -1088 0
v -352 -1152 0
v -384 -1152 0
v -384 -1120 0
v -352 -1120 0
v -384 -1184 0
v -416 -1184 0
v -416 -1152 0
v -384 -1152 0
v -416 -1216 0
v -448 -1216 0
v -448 -1184 0
v -416 -1184 0
v -448 -1248 0
v -480 -1248 0
v -480 -1216 0
v -448 -1216 0
v -480 -1280 0
v -512 -1280 0
v -512 -1248 0
v -480 -1248 0
v -512 -1312 0
v -544 -1312 0
v -544 -1280 0
v -512 -1280 0

# Texture cooridinates (Count = 8)
vt 0.6 0.6
vt 0.7 0.6
vt 0.7 0.5
vt 0.6 0.5
vt 0.7 0.7
vt 0.6 0.7
vt 0.6 0.8
vt 0.7 0.8

# Normal
vn 0 0 -1

# Mesh description
g CT_WaterMaze_mesh_0002

# Faces
f 1/1/1 2/2/1 3/3/1 4/4/1
f 5/1/1 6/2/1 7/3/1 8/4/1
f 9/1/1 10/2/1 11/3/1 12/4/1
f 13/1/1 14/2/1 15/3/1 16/4/1
f 17/1/1 18/2/1 19/3/1 20/4/1
f 21/1/1 22/2/1 23/3/1 24/4/1
f 25/1/1 26/2/1 27/3/1 28/4/1
f 29/1/1 30/2/1 31/3/1 32/4/1
f 33/1/1 34/2/1 35/3/1 36/4/1
f 37/1/1 38/2/1 39/3/1 40/4/1
f 41/1/1 42/2/1 43/3/1 44/4/1
f 45/1/1 46/2/1 47/3/1 48/4/1
f 49/1/1 50/2/1 51/3/1 52/4/1
f 53/1/1 54/2/1 55/3/1 56/4/1
f 57/1/1 58/2/1 59/3/1 60/4/1
f 61/1/1 62/2/1 63/3/1 64/4/1
f 65/1/1 66/2/1 67/3/1 68/4/1
f 69/1/1 70/2/1 71/3/1 72/4/1
f 73/1/1 74/2/1 75/3/1 76/4/1
f 77/5/1 78/6/1 79/7/1 80/8/1
f 81/5/1 82/6/1 83/7/1 84/8/1
f 85/5/1 86/6/1 87/7/1 88/8/1
f 89/5/1 90/6/1 91/7/1 92/8/1
f 93/5/1 94/6/1 95/7/1 96/8/1
f 97/5/1 98/6/1 99/7/1 100/8/1
f 101/5/1 102/6/1 103/7/1 104/8/1

