# Tiled2Unity generated file. Do not modify by hand.
# Wavefront file for 'LB_Armory_mesh_0003.obj'

# Vertices (Count = 60)
v -416 -320 0
v -448 -320 0
v -448 -288 0
v -416 -288 0
v -448 -352 0
v -480 -352 0
v -480 -320 0
v -448 -320 0
v -480 -384 0
v -512 -384 0
v -512 -352 0
v -480 -352 0
v -512 -416 0
v -544 -416 0
v -544 -384 0
v -512 -384 0
v -1056 -416 0
v -1088 -416 0
v -1088 -384 0
v -1056 -384 0
v -1088 -416 0
v -1120 -416 0
v -1120 -384 0
v -1088 -384 0
v -1120 -416 0
v -1152 -416 0
v -1152 -384 0
v -1120 -384 0
v -1152 -416 0
v -1184 -416 0
v -1184 -384 0
v -1152 -384 0
v -1184 -416 0
v -1216 -416 0
v -1216 -384 0
v -1184 -384 0
v -1216 -416 0
v -1248 -416 0
v -1248 -384 0
v -1216 -384 0
v -1248 -416 0
v -1280 -416 0
v -1280 -384 0
v -1248 -384 0
v -1280 -416 0
v -1312 -416 0
v -1312 -384 0
v -1280 -384 0
v -544 -448 0
v -576 -448 0
v -576 -416 0
v -544 -416 0
v -576 -480 0
v -608 -480 0
v -608 -448 0
v -576 -448 0
v -608 -512 0
v -640 -512 0
v -640 -480 0
v -608 -480 0

# Texture cooridinates (Count = 8)
vt 0.2 0.6666666
vt 0.3 0.6666666
vt 0.3 1
vt 0.2 1
vt 0.9 0.6666666
vt 1 0.6666666
vt 1 1
vt 0.9 1

# Normal
vn 0 0 -1

# Mesh description
g LB_Armory_mesh_0003

# Faces
f 1/1/1 2/2/1 3/3/1 4/4/1
f 5/1/1 6/2/1 7/3/1 8/4/1
f 9/1/1 10/2/1 11/3/1 12/4/1
f 13/1/1 14/2/1 15/3/1 16/4/1
f 17/5/1 18/6/1 19/7/1 20/8/1
f 21/5/1 22/6/1 23/7/1 24/8/1
f 25/5/1 26/6/1 27/7/1 28/8/1
f 29/5/1 30/6/1 31/7/1 32/8/1
f 33/5/1 34/6/1 35/7/1 36/8/1
f 37/5/1 38/6/1 39/7/1 40/8/1
f 41/5/1 42/6/1 43/7/1 44/8/1
f 45/5/1 46/6/1 47/7/1 48/8/1
f 49/1/1 50/2/1 51/3/1 52/4/1
f 53/1/1 54/2/1 55/3/1 56/4/1
f 57/1/1 58/2/1 59/3/1 60/4/1

