# Tiled2Unity generated file. Do not modify by hand.
# Wavefront file for 'PR_Puzzle_mesh_0001.obj'

# Vertices (Count = 16)
v -1408 -704 0
v -1440 -704 0
v -1440 -672 0
v -1408 -672 0
v -1408 -736 0
v -1440 -736 0
v -1440 -704 0
v -1408 -704 0
v -1408 -768 0
v -1440 -768 0
v -1440 -736 0
v -1408 -736 0
v -1088 -800 0
v -1120 -800 0
v -1120 -768 0
v -1088 -768 0

# Texture cooridinates (Count = 4)
vt 0.7 0.8
vt 0.8 0.8
vt 0.8 0.9
vt 0.7 0.9

# Normal
vn 0 0 -1

# Mesh description
g PR_Puzzle_mesh_0001

# Faces
f 1/1/1 2/2/1 3/3/1 4/4/1
f 5/1/1 6/2/1 7/3/1 8/4/1
f 9/1/1 10/2/1 11/3/1 12/4/1
f 13/1/1 14/2/1 15/3/1 16/4/1

