# Tiled2Unity generated file. Do not modify by hand.
# Wavefront file for 'CT_Entryway_mesh_0002.obj'

# Vertices (Count = 60)
v -1440 -224 0
v -1472 -224 0
v -1472 -192 0
v -1440 -192 0
v -1408 -256 0
v -1440 -256 0
v -1440 -224 0
v -1408 -224 0
v -1376 -288 0
v -1408 -288 0
v -1408 -256 0
v -1376 -256 0
v -1344 -320 0
v -1376 -320 0
v -1376 -288 0
v -1344 -288 0
v -1312 -352 0
v -1344 -352 0
v -1344 -320 0
v -1312 -320 0
v -448 -384 0
v -480 -384 0
v -480 -352 0
v -448 -352 0
v -1280 -384 0
v -1312 -384 0
v -1312 -352 0
v -1280 -352 0
v -416 -416 0
v -448 -416 0
v -448 -384 0
v -416 -384 0
v -384 -448 0
v -416 -448 0
v -416 -416 0
v -384 -416 0
v -384 -480 0
v -416 -480 0
v -416 -448 0
v -384 -448 0
v -416 -512 0
v -448 -512 0
v -448 -480 0
v -416 -480 0
v -448 -544 0
v -480 -544 0
v -480 -512 0
v -448 -512 0
v -448 -576 0
v -480 -576 0
v -480 -544 0
v -448 -544 0
v -416 -608 0
v -448 -608 0
v -448 -576 0
v -416 -576 0
v -384 -640 0
v -416 -640 0
v -416 -608 0
v -384 -608 0

# Texture cooridinates (Count = 4)
vt 0.6 0.7
vt 0.7 0.7
vt 0.7 0.8
vt 0.6 0.8

# Normal
vn 0 0 -1

# Mesh description
g CT_Entryway_mesh_0002

# Faces
f 1/1/1 2/2/1 3/3/1 4/4/1
f 5/1/1 6/2/1 7/3/1 8/4/1
f 9/1/1 10/2/1 11/3/1 12/4/1
f 13/1/1 14/2/1 15/3/1 16/4/1
f 17/1/1 18/2/1 19/3/1 20/4/1
f 21/1/1 22/4/1 23/3/1 24/2/1
f 25/1/1 26/2/1 27/3/1 28/4/1
f 29/1/1 30/4/1 31/3/1 32/2/1
f 33/1/1 34/2/1 35/3/1 36/4/1
f 37/2/1 38/1/1 39/4/1 40/3/1
f 41/2/1 42/1/1 43/4/1 44/3/1
f 45/2/1 46/1/1 47/4/1 48/3/1
f 49/1/1 50/2/1 51/3/1 52/4/1
f 53/1/1 54/2/1 55/3/1 56/4/1
f 57/1/1 58/2/1 59/3/1 60/4/1

