# Tiled2Unity generated file. Do not modify by hand.
# Wavefront file for 'CT_Entryway_mesh_0002.obj'

# Vertices (Count = 72)
v -1568 -224 0
v -1600 -224 0
v -1600 -192 0
v -1568 -192 0
v -1536 -256 0
v -1568 -256 0
v -1568 -224 0
v -1536 -224 0
v -1504 -288 0
v -1536 -288 0
v -1536 -256 0
v -1504 -256 0
v -1472 -320 0
v -1504 -320 0
v -1504 -288 0
v -1472 -288 0
v -1440 -352 0
v -1472 -352 0
v -1472 -320 0
v -1440 -320 0
v -480 -384 0
v -512 -384 0
v -512 -352 0
v -480 -352 0
v -512 -384 0
v -544 -384 0
v -544 -352 0
v -512 -352 0
v -1408 -384 0
v -1440 -384 0
v -1440 -352 0
v -1408 -352 0
v -448 -416 0
v -480 -416 0
v -480 -384 0
v -448 -384 0
v -416 -448 0
v -448 -448 0
v -448 -416 0
v -416 -416 0
v -384 -480 0
v -416 -480 0
v -416 -448 0
v -384 -448 0
v -416 -480 0
v -448 -480 0
v -448 -448 0
v -416 -448 0
v -448 -512 0
v -480 -512 0
v -480 -480 0
v -448 -480 0
v -480 -544 0
v -512 -544 0
v -512 -512 0
v -480 -512 0
v -480 -576 0
v -512 -576 0
v -512 -544 0
v -480 -544 0
v -512 -576 0
v -544 -576 0
v -544 -544 0
v -512 -544 0
v -448 -608 0
v -480 -608 0
v -480 -576 0
v -448 -576 0
v -416 -640 0
v -448 -640 0
v -448 -608 0
v -416 -608 0

# Texture cooridinates (Count = 8)
vt 0.6 0.7
vt 0.7 0.7
vt 0.7 0.8
vt 0.6 0.8
vt 0.8 0.5
vt 0.7 0.5
vt 0.7 0.6
vt 0.8 0.6

# Normal
vn 0 0 -1

# Mesh description
g CT_Entryway_mesh_0002

# Faces
f 1/1/1 2/2/1 3/3/1 4/4/1
f 5/1/1 6/2/1 7/3/1 8/4/1
f 9/1/1 10/2/1 11/3/1 12/4/1
f 13/1/1 14/2/1 15/3/1 16/4/1
f 17/1/1 18/2/1 19/3/1 20/4/1
f 21/1/1 22/4/1 23/3/1 24/2/1
f 25/5/1 26/6/1 27/7/1 28/8/1
f 29/1/1 30/2/1 31/3/1 32/4/1
f 33/1/1 34/4/1 35/3/1 36/2/1
f 37/1/1 38/2/1 39/3/1 40/4/1
f 41/6/1 42/5/1 43/8/1 44/7/1
f 45/2/1 46/1/1 47/4/1 48/3/1
f 49/2/1 50/1/1 51/4/1 52/3/1
f 53/2/1 54/1/1 55/4/1 56/3/1
f 57/1/1 58/2/1 59/3/1 60/4/1
f 61/5/1 62/6/1 63/7/1 64/8/1
f 65/1/1 66/2/1 67/3/1 68/4/1
f 69/1/1 70/2/1 71/3/1 72/4/1

