# Tiled2Unity generated file. Do not modify by hand.
# Wavefront file for 'LB_Shafts_mesh_0002.obj'

# Vertices (Count = 372)
v -1984 -160 0
v -2016 -160 0
v -2016 -128 0
v -1984 -128 0
v -256 -480 0
v -288 -480 0
v -288 -448 0
v -256 -448 0
v -288 -480 0
v -320 -480 0
v -320 -448 0
v -288 -448 0
v -320 -480 0
v -352 -480 0
v -352 -448 0
v -320 -448 0
v -352 -480 0
v -384 -480 0
v -384 -448 0
v -352 -448 0
v -384 -480 0
v -416 -480 0
v -416 -448 0
v -384 -448 0
v -416 -480 0
v -448 -480 0
v -448 -448 0
v -416 -448 0
v -448 -480 0
v -480 -480 0
v -480 -448 0
v -448 -448 0
v -480 -480 0
v -512 -480 0
v -512 -448 0
v -480 -448 0
v -512 -480 0
v -544 -480 0
v -544 -448 0
v -512 -448 0
v -544 -480 0
v -576 -480 0
v -576 -448 0
v -544 -448 0
v -576 -480 0
v -608 -480 0
v -608 -448 0
v -576 -448 0
v -608 -480 0
v -640 -480 0
v -640 -448 0
v -608 -448 0
v -640 -480 0
v -672 -480 0
v -672 -448 0
v -640 -448 0
v -672 -480 0
v -704 -480 0
v -704 -448 0
v -672 -448 0
v -704 -480 0
v -736 -480 0
v -736 -448 0
v -704 -448 0
v -736 -480 0
v -768 -480 0
v -768 -448 0
v -736 -448 0
v -1216 -480 0
v -1248 -480 0
v -1248 -448 0
v -1216 -448 0
v -1664 -480 0
v -1696 -480 0
v -1696 -448 0
v -1664 -448 0
v -256 -512 0
v -288 -512 0
v -288 -480 0
v -256 -480 0
v -736 -512 0
v -768 -512 0
v -768 -480 0
v -736 -480 0
v -1216 -512 0
v -1248 -512 0
v -1248 -480 0
v -1216 -480 0
v -256 -544 0
v -288 -544 0
v -288 -512 0
v -256 -512 0
v -736 -544 0
v -768 -544 0
v -768 -512 0
v -736 -512 0
v -1216 -544 0
v -1248 -544 0
v -1248 -512 0
v -1216 -512 0
v -256 -576 0
v -288 -576 0
v -288 -544 0
v -256 -544 0
v -384 -576 0
v -416 -576 0
v -416 -544 0
v -384 -544 0
v -416 -576 0
v -448 -576 0
v -448 -544 0
v -416 -544 0
v -448 -576 0
v -480 -576 0
v -480 -544 0
v -448 -544 0
v -480 -576 0
v -512 -576 0
v -512 -544 0
v -480 -544 0
v -512 -576 0
v -544 -576 0
v -544 -544 0
v -512 -544 0
v -544 -576 0
v -576 -576 0
v -576 -544 0
v -544 -544 0
v -576 -576 0
v -608 -576 0
v -608 -544 0
v -576 -544 0
v -608 -576 0
v -640 -576 0
v -640 -544 0
v -608 -544 0
v -640 -576 0
v -672 -576 0
v -672 -544 0
v -640 -544 0
v -736 -576 0
v -768 -576 0
v -768 -544 0
v -736 -544 0
v -1216 -576 0
v -1248 -576 0
v -1248 -544 0
v -1216 -544 0
v -1248 -576 0
v -1280 -576 0
v -1280 -544 0
v -1248 -544 0
v -256 -608 0
v -288 -608 0
v -288 -576 0
v -256 -576 0
v -384 -608 0
v -416 -608 0
v -416 -576 0
v -384 -576 0
v -640 -608 0
v -672 -608 0
v -672 -576 0
v -640 -576 0
v -736 -608 0
v -768 -608 0
v -768 -576 0
v -736 -576 0
v -1536 -608 0
v -1568 -608 0
v -1568 -576 0
v -1536 -576 0
v -256 -640 0
v -288 -640 0
v -288 -608 0
v -256 -608 0
v -384 -640 0
v -416 -640 0
v -416 -608 0
v -384 -608 0
v -640 -640 0
v -672 -640 0
v -672 -608 0
v -640 -608 0
v -736 -640 0
v -768 -640 0
v -768 -608 0
v -736 -608 0
v -768 -640 0
v -800 -640 0
v -800 -608 0
v -768 -608 0
v -800 -640 0
v -832 -640 0
v -832 -608 0
v -800 -608 0
v -1504 -640 0
v -1536 -640 0
v -1536 -608 0
v -1504 -608 0
v -256 -672 0
v -288 -672 0
v -288 -640 0
v -256 -640 0
v -384 -672 0
v -416 -672 0
v -416 -640 0
v -384 -640 0
v -640 -672 0
v -672 -672 0
v -672 -640 0
v -640 -640 0
v -256 -704 0
v -288 -704 0
v -288 -672 0
v -256 -672 0
v -384 -704 0
v -416 -704 0
v -416 -672 0
v -384 -672 0
v -640 -704 0
v -672 -704 0
v -672 -672 0
v -640 -672 0
v -256 -736 0
v -288 -736 0
v -288 -704 0
v -256 -704 0
v -384 -736 0
v -416 -736 0
v -416 -704 0
v -384 -704 0
v -640 -736 0
v -672 -736 0
v -672 -704 0
v -640 -704 0
v -672 -736 0
v -704 -736 0
v -704 -704 0
v -672 -704 0
v -704 -736 0
v -736 -736 0
v -736 -704 0
v -704 -704 0
v -736 -736 0
v -768 -736 0
v -768 -704 0
v -736 -704 0
v -768 -736 0
v -800 -736 0
v -800 -704 0
v -768 -704 0
v -800 -736 0
v -832 -736 0
v -832 -704 0
v -800 -704 0
v -832 -736 0
v -864 -736 0
v -864 -704 0
v -832 -704 0
v -864 -736 0
v -896 -736 0
v -896 -704 0
v -864 -704 0
v -896 -736 0
v -928 -736 0
v -928 -704 0
v -896 -704 0
v -928 -736 0
v -960 -736 0
v -960 -704 0
v -928 -704 0
v 0 -768 0
v -32 -768 0
v -32 -736 0
v 0 -736 0
v -32 -768 0
v -64 -768 0
v -64 -736 0
v -32 -736 0
v -64 -768 0
v -96 -768 0
v -96 -736 0
v -64 -736 0
v -96 -768 0
v -128 -768 0
v -128 -736 0
v -96 -736 0
v -128 -768 0
v -160 -768 0
v -160 -736 0
v -128 -736 0
v -160 -768 0
v -192 -768 0
v -192 -736 0
v -160 -736 0
v -192 -768 0
v -224 -768 0
v -224 -736 0
v -192 -736 0
v -224 -768 0
v -256 -768 0
v -256 -736 0
v -224 -736 0
v -256 -768 0
v -288 -768 0
v -288 -736 0
v -256 -736 0
v -384 -768 0
v -416 -768 0
v -416 -736 0
v -384 -736 0
v -384 -800 0
v -416 -800 0
v -416 -768 0
v -384 -768 0
v -384 -832 0
v -416 -832 0
v -416 -800 0
v -384 -800 0
v 0 -864 0
v -32 -864 0
v -32 -832 0
v 0 -832 0
v -32 -864 0
v -64 -864 0
v -64 -832 0
v -32 -832 0
v -64 -864 0
v -96 -864 0
v -96 -832 0
v -64 -832 0
v -96 -864 0
v -128 -864 0
v -128 -832 0
v -96 -832 0
v -128 -864 0
v -160 -864 0
v -160 -832 0
v -128 -832 0
v -160 -864 0
v -192 -864 0
v -192 -832 0
v -160 -832 0
v -192 -864 0
v -224 -864 0
v -224 -832 0
v -192 -832 0
v -224 -864 0
v -256 -864 0
v -256 -832 0
v -224 -832 0
v -256 -864 0
v -288 -864 0
v -288 -832 0
v -256 -832 0
v -288 -864 0
v -320 -864 0
v -320 -832 0
v -288 -832 0
v -320 -864 0
v -352 -864 0
v -352 -832 0
v -320 -832 0
v -352 -864 0
v -384 -864 0
v -384 -832 0
v -352 -832 0
v -384 -864 0
v -416 -864 0
v -416 -832 0
v -384 -832 0

# Texture cooridinates (Count = 26)
vt 0 0.3333333
vt 0.1 0.3333333
vt 0.1 0.6666666
vt 0 0.6666666
vt 0.4 0.3333333
vt 0.5 0.3333333
vt 0.5 0.6666666
vt 0.4 0.6666666
vt 0.7 0
vt 0.8 0
vt 0.8 0.3333333
vt 0.7 0.3333333
vt 0.6 0.3333333
vt 0.6 0.6666666
vt 0.9 0.3333333
vt 0.9 0.6666666
vt 0.8 0.6666666
vt 0.7 0.6666666
vt 0.7 1
vt 0.6 1
vt 0.8 1
vt 0.9 1
vt 0.6 0
vt 0.9 0
vt 0.4 0
vt 0.5 0

# Normal
vn 0 0 -1

# Mesh description
g LB_Shafts_mesh_0002

# Faces
f 1/1/1 2/2/1 3/3/1 4/4/1
f 5/5/1 6/6/1 7/7/1 8/8/1
f 9/9/1 10/10/1 11/11/1 12/12/1
f 13/9/1 14/10/1 15/11/1 16/12/1
f 17/9/1 18/10/1 19/11/1 20/12/1
f 21/9/1 22/10/1 23/11/1 24/12/1
f 25/9/1 26/10/1 27/11/1 28/12/1
f 29/9/1 30/10/1 31/11/1 32/12/1
f 33/9/1 34/10/1 35/11/1 36/12/1
f 37/9/1 38/10/1 39/11/1 40/12/1
f 41/9/1 42/10/1 43/11/1 44/12/1
f 45/9/1 46/10/1 47/11/1 48/12/1
f 49/9/1 50/10/1 51/11/1 52/12/1
f 53/9/1 54/10/1 55/11/1 56/12/1
f 57/9/1 58/10/1 59/11/1 60/12/1
f 61/9/1 62/10/1 63/11/1 64/12/1
f 65/6/1 66/13/1 67/14/1 68/7/1
f 69/1/1 70/2/1 71/3/1 72/4/1
f 73/1/1 74/2/1 75/3/1 76/4/1
f 77/11/1 78/15/1 79/16/1 80/17/1
f 81/13/1 82/12/1 83/18/1 84/14/1
f 85/1/1 86/2/1 87/3/1 88/4/1
f 89/11/1 90/15/1 91/16/1 92/17/1
f 93/13/1 94/12/1 95/18/1 96/14/1
f 97/1/1 98/2/1 99/3/1 100/4/1
f 101/11/1 102/15/1 103/16/1 104/17/1
f 105/14/1 106/18/1 107/19/1 108/20/1
f 109/18/1 110/17/1 111/21/1 112/19/1
f 113/18/1 114/17/1 115/21/1 116/19/1
f 117/18/1 118/17/1 119/21/1 120/19/1
f 121/18/1 122/17/1 123/21/1 124/19/1
f 125/18/1 126/17/1 127/21/1 128/19/1
f 129/18/1 130/17/1 131/21/1 132/19/1
f 133/18/1 134/17/1 135/21/1 136/19/1
f 137/17/1 138/16/1 139/22/1 140/21/1
f 141/13/1 142/12/1 143/18/1 144/14/1
f 145/1/1 146/2/1 147/3/1 148/4/1
f 149/1/1 150/2/1 151/3/1 152/4/1
f 153/11/1 154/15/1 155/16/1 156/17/1
f 157/13/1 158/12/1 159/18/1 160/14/1
f 161/11/1 162/15/1 163/16/1 164/17/1
f 165/13/1 166/12/1 167/18/1 168/14/1
f 169/1/1 170/2/1 171/3/1 172/4/1
f 173/11/1 174/15/1 175/16/1 176/17/1
f 177/13/1 178/12/1 179/18/1 180/14/1
f 181/11/1 182/15/1 183/16/1 184/17/1
f 185/23/1 186/9/1 187/12/1 188/13/1
f 189/9/1 190/10/1 191/11/1 192/12/1
f 193/10/1 194/24/1 195/15/1 196/11/1
f 197/1/1 198/2/1 199/3/1 200/4/1
f 201/11/1 202/15/1 203/16/1 204/17/1
f 205/13/1 206/12/1 207/18/1 208/14/1
f 209/11/1 210/15/1 211/16/1 212/17/1
f 213/11/1 214/15/1 215/16/1 216/17/1
f 217/13/1 218/12/1 219/18/1 220/14/1
f 221/11/1 222/15/1 223/16/1 224/17/1
f 225/11/1 226/15/1 227/16/1 228/17/1
f 229/13/1 230/12/1 231/18/1 232/14/1
f 233/25/1 234/26/1 235/6/1 236/5/1
f 237/18/1 238/17/1 239/21/1 240/19/1
f 241/18/1 242/17/1 243/21/1 244/19/1
f 245/18/1 246/17/1 247/21/1 248/19/1
f 249/18/1 250/17/1 251/21/1 252/19/1
f 253/18/1 254/17/1 255/21/1 256/19/1
f 257/18/1 258/17/1 259/21/1 260/19/1
f 261/18/1 262/17/1 263/21/1 264/19/1
f 265/18/1 266/17/1 267/21/1 268/19/1
f 269/17/1 270/16/1 271/22/1 272/21/1
f 273/23/1 274/9/1 275/12/1 276/13/1
f 277/9/1 278/10/1 279/11/1 280/12/1
f 281/9/1 282/10/1 283/11/1 284/12/1
f 285/9/1 286/10/1 287/11/1 288/12/1
f 289/9/1 290/10/1 291/11/1 292/12/1
f 293/9/1 294/10/1 295/11/1 296/12/1
f 297/9/1 298/10/1 299/11/1 300/12/1
f 301/9/1 302/10/1 303/11/1 304/12/1
f 305/10/1 306/24/1 307/15/1 308/11/1
f 309/13/1 310/12/1 311/18/1 312/14/1
f 313/13/1 314/12/1 315/18/1 316/14/1
f 317/13/1 318/12/1 319/18/1 320/14/1
f 321/14/1 322/18/1 323/19/1 324/20/1
f 325/18/1 326/17/1 327/21/1 328/19/1
f 329/18/1 330/17/1 331/21/1 332/19/1
f 333/18/1 334/17/1 335/21/1 336/19/1
f 337/18/1 338/17/1 339/21/1 340/19/1
f 341/18/1 342/17/1 343/21/1 344/19/1
f 345/18/1 346/17/1 347/21/1 348/19/1
f 349/18/1 350/17/1 351/21/1 352/19/1
f 353/18/1 354/17/1 355/21/1 356/19/1
f 357/18/1 358/17/1 359/21/1 360/19/1
f 361/18/1 362/17/1 363/21/1 364/19/1
f 365/18/1 366/17/1 367/21/1 368/19/1
f 369/26/1 370/23/1 371/13/1 372/6/1

