# Tiled2Unity generated file. Do not modify by hand.
# Wavefront file for 'LB_Shafts_mesh_0004.obj'

# Vertices (Count = 172)
v -1600 -352 0
v -1632 -352 0
v -1632 -320 0
v -1600 -320 0
v -1632 -352 0
v -1664 -352 0
v -1664 -320 0
v -1632 -320 0
v -1568 -384 0
v -1600 -384 0
v -1600 -352 0
v -1568 -352 0
v -1600 -384 0
v -1632 -384 0
v -1632 -352 0
v -1600 -352 0
v -1536 -416 0
v -1568 -416 0
v -1568 -384 0
v -1536 -384 0
v -1568 -416 0
v -1600 -416 0
v -1600 -384 0
v -1568 -384 0
v -1024 -448 0
v -1056 -448 0
v -1056 -416 0
v -1024 -416 0
v -1056 -448 0
v -1088 -448 0
v -1088 -416 0
v -1056 -416 0
v -1088 -448 0
v -1120 -448 0
v -1120 -416 0
v -1088 -416 0
v -1120 -448 0
v -1152 -448 0
v -1152 -416 0
v -1120 -416 0
v -1152 -448 0
v -1184 -448 0
v -1184 -416 0
v -1152 -416 0
v -1184 -448 0
v -1216 -448 0
v -1216 -416 0
v -1184 -416 0
v -1216 -448 0
v -1248 -448 0
v -1248 -416 0
v -1216 -416 0
v -1504 -448 0
v -1536 -448 0
v -1536 -416 0
v -1504 -416 0
v -1536 -448 0
v -1568 -448 0
v -1568 -416 0
v -1536 -416 0
v -1216 -480 0
v -1248 -480 0
v -1248 -448 0
v -1216 -448 0
v -1472 -480 0
v -1504 -480 0
v -1504 -448 0
v -1472 -448 0
v -1504 -480 0
v -1536 -480 0
v -1536 -448 0
v -1504 -448 0
v -1216 -512 0
v -1248 -512 0
v -1248 -480 0
v -1216 -480 0
v -1440 -512 0
v -1472 -512 0
v -1472 -480 0
v -1440 -480 0
v -1472 -512 0
v -1504 -512 0
v -1504 -480 0
v -1472 -480 0
v -1216 -544 0
v -1248 -544 0
v -1248 -512 0
v -1216 -512 0
v -1408 -544 0
v -1440 -544 0
v -1440 -512 0
v -1408 -512 0
v -1440 -544 0
v -1472 -544 0
v -1472 -512 0
v -1440 -512 0
v -1216 -576 0
v -1248 -576 0
v -1248 -544 0
v -1216 -544 0
v -1248 -576 0
v -1280 -576 0
v -1280 -544 0
v -1248 -544 0
v -1280 -576 0
v -1312 -576 0
v -1312 -544 0
v -1280 -544 0
v -1376 -576 0
v -1408 -576 0
v -1408 -544 0
v -1376 -544 0
v -1408 -576 0
v -1440 -576 0
v -1440 -544 0
v -1408 -544 0
v -1280 -608 0
v -1312 -608 0
v -1312 -576 0
v -1280 -576 0
v -1344 -608 0
v -1376 -608 0
v -1376 -576 0
v -1344 -576 0
v -1280 -640 0
v -1312 -640 0
v -1312 -608 0
v -1280 -608 0
v -1312 -640 0
v -1344 -640 0
v -1344 -608 0
v -1312 -608 0
v -1344 -640 0
v -1376 -640 0
v -1376 -608 0
v -1344 -608 0
v -1120 -736 0
v -1152 -736 0
v -1152 -704 0
v -1120 -704 0
v -1152 -736 0
v -1184 -736 0
v -1184 -704 0
v -1152 -704 0
v -1184 -736 0
v -1216 -736 0
v -1216 -704 0
v -1184 -704 0
v -1216 -736 0
v -1248 -736 0
v -1248 -704 0
v -1216 -704 0
v -1248 -736 0
v -1280 -736 0
v -1280 -704 0
v -1248 -704 0
v -1280 -736 0
v -1312 -736 0
v -1312 -704 0
v -1280 -704 0
v -1312 -736 0
v -1344 -736 0
v -1344 -704 0
v -1312 -704 0
v -1344 -736 0
v -1376 -736 0
v -1376 -704 0
v -1344 -704 0
v -1376 -736 0
v -1408 -736 0
v -1408 -704 0
v -1376 -704 0

# Texture cooridinates (Count = 18)
vt 0.4 0.3333333
vt 0.5 0.3333333
vt 0.5 0.6666666
vt 0.4 0.6666666
vt 0.8 0
vt 0.9 0
vt 0.9 0.3333333
vt 0.8 0.3333333
vt 0.7 0
vt 0.7 0.3333333
vt 0.6 0.3333333
vt 0.6 0.6666666
vt 0.7 0.6666666
vt 0.6 0
vt 0.9 0.6666666
vt 0.8 0.6666666
vt 0.8 1
vt 0.7 1

# Normal
vn 0 0 -1

# Mesh description
g LB_Shafts_mesh_0004

# Faces
f 1/1/1 2/2/1 3/3/1 4/4/1
f 5/5/1 6/6/1 7/7/1 8/8/1
f 9/1/1 10/2/1 11/3/1 12/4/1
f 13/5/1 14/6/1 15/7/1 16/8/1
f 17/1/1 18/2/1 19/3/1 20/4/1
f 21/5/1 22/6/1 23/7/1 24/8/1
f 25/9/1 26/5/1 27/8/1 28/10/1
f 29/9/1 30/5/1 31/8/1 32/10/1
f 33/9/1 34/5/1 35/8/1 36/10/1
f 37/9/1 38/5/1 39/8/1 40/10/1
f 41/9/1 42/5/1 43/8/1 44/10/1
f 45/9/1 46/5/1 47/8/1 48/10/1
f 49/2/1 50/11/1 51/12/1 52/3/1
f 53/1/1 54/2/1 55/3/1 56/4/1
f 57/5/1 58/6/1 59/7/1 60/8/1
f 61/11/1 62/10/1 63/13/1 64/12/1
f 65/1/1 66/2/1 67/3/1 68/4/1
f 69/5/1 70/6/1 71/7/1 72/8/1
f 73/11/1 74/10/1 75/13/1 76/12/1
f 77/1/1 78/2/1 79/3/1 80/4/1
f 81/5/1 82/6/1 83/7/1 84/8/1
f 85/11/1 86/10/1 87/13/1 88/12/1
f 89/1/1 90/2/1 91/3/1 92/4/1
f 93/5/1 94/6/1 95/7/1 96/8/1
f 97/14/1 98/9/1 99/10/1 100/11/1
f 101/9/1 102/5/1 103/8/1 104/10/1
f 105/2/1 106/11/1 107/12/1 108/3/1
f 109/9/1 110/5/1 111/8/1 112/10/1
f 113/5/1 114/6/1 115/7/1 116/8/1
f 117/11/1 118/10/1 119/13/1 120/12/1
f 121/8/1 122/7/1 123/15/1 124/16/1
f 125/14/1 126/9/1 127/10/1 128/11/1
f 129/9/1 130/5/1 131/8/1 132/10/1
f 133/5/1 134/6/1 135/7/1 136/8/1
f 137/13/1 138/16/1 139/17/1 140/18/1
f 141/13/1 142/16/1 143/17/1 144/18/1
f 145/13/1 146/16/1 147/17/1 148/18/1
f 149/13/1 150/16/1 151/17/1 152/18/1
f 153/13/1 154/16/1 155/17/1 156/18/1
f 157/13/1 158/16/1 159/17/1 160/18/1
f 161/13/1 162/16/1 163/17/1 164/18/1
f 165/13/1 166/16/1 167/17/1 168/18/1
f 169/13/1 170/16/1 171/17/1 172/18/1

