# Tiled2Unity generated file. Do not modify by hand.
# Wavefront file for 'PL_Water_mesh_0001.obj'

# Vertices (Count = 872)
v -480 -864 0
v -512 -864 0
v -512 -832 0
v -480 -832 0
v -640 -864 0
v -672 -864 0
v -672 -832 0
v -640 -832 0
v -672 -864 0
v -704 -864 0
v -704 -832 0
v -672 -832 0
v -480 -896 0
v -512 -896 0
v -512 -864 0
v -480 -864 0
v -640 -896 0
v -672 -896 0
v -672 -864 0
v -640 -864 0
v -672 -896 0
v -704 -896 0
v -704 -864 0
v -672 -864 0
v -480 -928 0
v -512 -928 0
v -512 -896 0
v -480 -896 0
v -640 -928 0
v -672 -928 0
v -672 -896 0
v -640 -896 0
v -672 -928 0
v -704 -928 0
v -704 -896 0
v -672 -896 0
v -480 -960 0
v -512 -960 0
v -512 -928 0
v -480 -928 0
v -640 -960 0
v -672 -960 0
v -672 -928 0
v -640 -928 0
v -672 -960 0
v -704 -960 0
v -704 -928 0
v -672 -928 0
v -480 -992 0
v -512 -992 0
v -512 -960 0
v -480 -960 0
v -640 -992 0
v -672 -992 0
v -672 -960 0
v -640 -960 0
v -672 -992 0
v -704 -992 0
v -704 -960 0
v -672 -960 0
v -704 -992 0
v -736 -992 0
v -736 -960 0
v -704 -960 0
v -736 -992 0
v -768 -992 0
v -768 -960 0
v -736 -960 0
v -480 -1024 0
v -512 -1024 0
v -512 -992 0
v -480 -992 0
v -640 -1024 0
v -672 -1024 0
v -672 -992 0
v -640 -992 0
v -672 -1024 0
v -704 -1024 0
v -704 -992 0
v -672 -992 0
v -704 -1024 0
v -736 -1024 0
v -736 -992 0
v -704 -992 0
v -736 -1024 0
v -768 -1024 0
v -768 -992 0
v -736 -992 0
v -480 -1056 0
v -512 -1056 0
v -512 -1024 0
v -480 -1024 0
v -640 -1056 0
v -672 -1056 0
v -672 -1024 0
v -640 -1024 0
v -672 -1056 0
v -704 -1056 0
v -704 -1024 0
v -672 -1024 0
v -704 -1056 0
v -736 -1056 0
v -736 -1024 0
v -704 -1024 0
v -736 -1056 0
v -768 -1056 0
v -768 -1024 0
v -736 -1024 0
v -256 -1088 0
v -288 -1088 0
v -288 -1056 0
v -256 -1056 0
v -288 -1088 0
v -320 -1088 0
v -320 -1056 0
v -288 -1056 0
v -320 -1088 0
v -352 -1088 0
v -352 -1056 0
v -320 -1056 0
v -352 -1088 0
v -384 -1088 0
v -384 -1056 0
v -352 -1056 0
v -384 -1088 0
v -416 -1088 0
v -416 -1056 0
v -384 -1056 0
v -416 -1088 0
v -448 -1088 0
v -448 -1056 0
v -416 -1056 0
v -448 -1088 0
v -480 -1088 0
v -480 -1056 0
v -448 -1056 0
v -480 -1088 0
v -512 -1088 0
v -512 -1056 0
v -480 -1056 0
v -640 -1088 0
v -672 -1088 0
v -672 -1056 0
v -640 -1056 0
v -672 -1088 0
v -704 -1088 0
v -704 -1056 0
v -672 -1056 0
v -256 -1120 0
v -288 -1120 0
v -288 -1088 0
v -256 -1088 0
v -288 -1120 0
v -320 -1120 0
v -320 -1088 0
v -288 -1088 0
v -320 -1120 0
v -352 -1120 0
v -352 -1088 0
v -320 -1088 0
v -352 -1120 0
v -384 -1120 0
v -384 -1088 0
v -352 -1088 0
v -384 -1120 0
v -416 -1120 0
v -416 -1088 0
v -384 -1088 0
v -416 -1120 0
v -448 -1120 0
v -448 -1088 0
v -416 -1088 0
v -448 -1120 0
v -480 -1120 0
v -480 -1088 0
v -448 -1088 0
v -480 -1120 0
v -512 -1120 0
v -512 -1088 0
v -480 -1088 0
v -640 -1120 0
v -672 -1120 0
v -672 -1088 0
v -640 -1088 0
v -672 -1120 0
v -704 -1120 0
v -704 -1088 0
v -672 -1088 0
v -32 -1152 0
v -64 -1152 0
v -64 -1120 0
v -32 -1120 0
v -64 -1152 0
v -96 -1152 0
v -96 -1120 0
v -64 -1120 0
v -96 -1152 0
v -128 -1152 0
v -128 -1120 0
v -96 -1120 0
v -32 -1184 0
v -64 -1184 0
v -64 -1152 0
v -32 -1152 0
v -64 -1184 0
v -96 -1184 0
v -96 -1152 0
v -64 -1152 0
v -96 -1184 0
v -128 -1184 0
v -128 -1152 0
v -96 -1152 0
v -32 -1216 0
v -64 -1216 0
v -64 -1184 0
v -32 -1184 0
v -64 -1216 0
v -96 -1216 0
v -96 -1184 0
v -64 -1184 0
v -96 -1216 0
v -128 -1216 0
v -128 -1184 0
v -96 -1184 0
v -864 -1216 0
v -896 -1216 0
v -896 -1184 0
v -864 -1184 0
v -896 -1216 0
v -928 -1216 0
v -928 -1184 0
v -896 -1184 0
v -928 -1216 0
v -960 -1216 0
v -960 -1184 0
v -928 -1184 0
v -960 -1216 0
v -992 -1216 0
v -992 -1184 0
v -960 -1184 0
v -992 -1216 0
v -1024 -1216 0
v -1024 -1184 0
v -992 -1184 0
v -32 -1248 0
v -64 -1248 0
v -64 -1216 0
v -32 -1216 0
v -64 -1248 0
v -96 -1248 0
v -96 -1216 0
v -64 -1216 0
v -96 -1248 0
v -128 -1248 0
v -128 -1216 0
v -96 -1216 0
v -864 -1248 0
v -896 -1248 0
v -896 -1216 0
v -864 -1216 0
v -896 -1248 0
v -928 -1248 0
v -928 -1216 0
v -896 -1216 0
v -928 -1248 0
v -960 -1248 0
v -960 -1216 0
v -928 -1216 0
v -960 -1248 0
v -992 -1248 0
v -992 -1216 0
v -960 -1216 0
v -992 -1248 0
v -1024 -1248 0
v -1024 -1216 0
v -992 -1216 0
v -32 -1280 0
v -64 -1280 0
v -64 -1248 0
v -32 -1248 0
v -64 -1280 0
v -96 -1280 0
v -96 -1248 0
v -64 -1248 0
v -96 -1280 0
v -128 -1280 0
v -128 -1248 0
v -96 -1248 0
v -256 -1280 0
v -288 -1280 0
v -288 -1248 0
v -256 -1248 0
v -288 -1280 0
v -320 -1280 0
v -320 -1248 0
v -288 -1248 0
v -320 -1280 0
v -352 -1280 0
v -352 -1248 0
v -320 -1248 0
v -352 -1280 0
v -384 -1280 0
v -384 -1248 0
v -352 -1248 0
v -384 -1280 0
v -416 -1280 0
v -416 -1248 0
v -384 -1248 0
v -832 -1280 0
v -864 -1280 0
v -864 -1248 0
v -832 -1248 0
v -864 -1280 0
v -896 -1280 0
v -896 -1248 0
v -864 -1248 0
v -896 -1280 0
v -928 -1280 0
v -928 -1248 0
v -896 -1248 0
v -928 -1280 0
v -960 -1280 0
v -960 -1248 0
v -928 -1248 0
v -960 -1280 0
v -992 -1280 0
v -992 -1248 0
v -960 -1248 0
v -992 -1280 0
v -1024 -1280 0
v -1024 -1248 0
v -992 -1248 0
v -32 -1312 0
v -64 -1312 0
v -64 -1280 0
v -32 -1280 0
v -64 -1312 0
v -96 -1312 0
v -96 -1280 0
v -64 -1280 0
v -96 -1312 0
v -128 -1312 0
v -128 -1280 0
v -96 -1280 0
v -256 -1312 0
v -288 -1312 0
v -288 -1280 0
v -256 -1280 0
v -288 -1312 0
v -320 -1312 0
v -320 -1280 0
v -288 -1280 0
v -320 -1312 0
v -352 -1312 0
v -352 -1280 0
v -320 -1280 0
v -352 -1312 0
v -384 -1312 0
v -384 -1280 0
v -352 -1280 0
v -384 -1312 0
v -416 -1312 0
v -416 -1280 0
v -384 -1280 0
v -832 -1312 0
v -864 -1312 0
v -864 -1280 0
v -832 -1280 0
v -864 -1312 0
v -896 -1312 0
v -896 -1280 0
v -864 -1280 0
v -896 -1312 0
v -928 -1312 0
v -928 -1280 0
v -896 -1280 0
v -928 -1312 0
v -960 -1312 0
v -960 -1280 0
v -928 -1280 0
v -960 -1312 0
v -992 -1312 0
v -992 -1280 0
v -960 -1280 0
v -992 -1312 0
v -1024 -1312 0
v -1024 -1280 0
v -992 -1280 0
v -32 -1344 0
v -64 -1344 0
v -64 -1312 0
v -32 -1312 0
v -64 -1344 0
v -96 -1344 0
v -96 -1312 0
v -64 -1312 0
v -96 -1344 0
v -128 -1344 0
v -128 -1312 0
v -96 -1312 0
v -256 -1344 0
v -288 -1344 0
v -288 -1312 0
v -256 -1312 0
v -288 -1344 0
v -320 -1344 0
v -320 -1312 0
v -288 -1312 0
v -320 -1344 0
v -352 -1344 0
v -352 -1312 0
v -320 -1312 0
v -352 -1344 0
v -384 -1344 0
v -384 -1312 0
v -352 -1312 0
v -384 -1344 0
v -416 -1344 0
v -416 -1312 0
v -384 -1312 0
v -832 -1344 0
v -864 -1344 0
v -864 -1312 0
v -832 -1312 0
v -864 -1344 0
v -896 -1344 0
v -896 -1312 0
v -864 -1312 0
v -896 -1344 0
v -928 -1344 0
v -928 -1312 0
v -896 -1312 0
v -928 -1344 0
v -960 -1344 0
v -960 -1312 0
v -928 -1312 0
v -960 -1344 0
v -992 -1344 0
v -992 -1312 0
v -960 -1312 0
v -992 -1344 0
v -1024 -1344 0
v -1024 -1312 0
v -992 -1312 0
v -32 -1376 0
v -64 -1376 0
v -64 -1344 0
v -32 -1344 0
v -64 -1376 0
v -96 -1376 0
v -96 -1344 0
v -64 -1344 0
v -96 -1376 0
v -128 -1376 0
v -128 -1344 0
v -96 -1344 0
v -256 -1376 0
v -288 -1376 0
v -288 -1344 0
v -256 -1344 0
v -288 -1376 0
v -320 -1376 0
v -320 -1344 0
v -288 -1344 0
v -320 -1376 0
v -352 -1376 0
v -352 -1344 0
v -320 -1344 0
v -352 -1376 0
v -384 -1376 0
v -384 -1344 0
v -352 -1344 0
v -384 -1376 0
v -416 -1376 0
v -416 -1344 0
v -384 -1344 0
v -832 -1376 0
v -864 -1376 0
v -864 -1344 0
v -832 -1344 0
v -864 -1376 0
v -896 -1376 0
v -896 -1344 0
v -864 -1344 0
v -896 -1376 0
v -928 -1376 0
v -928 -1344 0
v -896 -1344 0
v -928 -1376 0
v -960 -1376 0
v -960 -1344 0
v -928 -1344 0
v -960 -1376 0
v -992 -1376 0
v -992 -1344 0
v -960 -1344 0
v -992 -1376 0
v -1024 -1376 0
v -1024 -1344 0
v -992 -1344 0
v -32 -1408 0
v -64 -1408 0
v -64 -1376 0
v -32 -1376 0
v -64 -1408 0
v -96 -1408 0
v -96 -1376 0
v -64 -1376 0
v -96 -1408 0
v -128 -1408 0
v -128 -1376 0
v -96 -1376 0
v -128 -1408 0
v -160 -1408 0
v -160 -1376 0
v -128 -1376 0
v -160 -1408 0
v -192 -1408 0
v -192 -1376 0
v -160 -1376 0
v -192 -1408 0
v -224 -1408 0
v -224 -1376 0
v -192 -1376 0
v -224 -1408 0
v -256 -1408 0
v -256 -1376 0
v -224 -1376 0
v -256 -1408 0
v -288 -1408 0
v -288 -1376 0
v -256 -1376 0
v -288 -1408 0
v -320 -1408 0
v -320 -1376 0
v -288 -1376 0
v -320 -1408 0
v -352 -1408 0
v -352 -1376 0
v -320 -1376 0
v -352 -1408 0
v -384 -1408 0
v -384 -1376 0
v -352 -1376 0
v -384 -1408 0
v -416 -1408 0
v -416 -1376 0
v -384 -1376 0
v -416 -1408 0
v -448 -1408 0
v -448 -1376 0
v -416 -1376 0
v -448 -1408 0
v -480 -1408 0
v -480 -1376 0
v -448 -1376 0
v -480 -1408 0
v -512 -1408 0
v -512 -1376 0
v -480 -1376 0
v -512 -1408 0
v -544 -1408 0
v -544 -1376 0
v -512 -1376 0
v -544 -1408 0
v -576 -1408 0
v -576 -1376 0
v -544 -1376 0
v -576 -1408 0
v -608 -1408 0
v -608 -1376 0
v -576 -1376 0
v -608 -1408 0
v -640 -1408 0
v -640 -1376 0
v -608 -1376 0
v -640 -1408 0
v -672 -1408 0
v -672 -1376 0
v -640 -1376 0
v -672 -1408 0
v -704 -1408 0
v -704 -1376 0
v -672 -1376 0
v -704 -1408 0
v -736 -1408 0
v -736 -1376 0
v -704 -1376 0
v -736 -1408 0
v -768 -1408 0
v -768 -1376 0
v -736 -1376 0
v -768 -1408 0
v -800 -1408 0
v -800 -1376 0
v -768 -1376 0
v -800 -1408 0
v -832 -1408 0
v -832 -1376 0
v -800 -1376 0
v -832 -1408 0
v -864 -1408 0
v -864 -1376 0
v -832 -1376 0
v -864 -1408 0
v -896 -1408 0
v -896 -1376 0
v -864 -1376 0
v -896 -1408 0
v -928 -1408 0
v -928 -1376 0
v -896 -1376 0
v -928 -1408 0
v -960 -1408 0
v -960 -1376 0
v -928 -1376 0
v -960 -1408 0
v -992 -1408 0
v -992 -1376 0
v -960 -1376 0
v -992 -1408 0
v -1024 -1408 0
v -1024 -1376 0
v -992 -1376 0
v -32 -1440 0
v -64 -1440 0
v -64 -1408 0
v -32 -1408 0
v -64 -1440 0
v -96 -1440 0
v -96 -1408 0
v -64 -1408 0
v -96 -1440 0
v -128 -1440 0
v -128 -1408 0
v -96 -1408 0
v -128 -1440 0
v -160 -1440 0
v -160 -1408 0
v -128 -1408 0
v -160 -1440 0
v -192 -1440 0
v -192 -1408 0
v -160 -1408 0
v -192 -1440 0
v -224 -1440 0
v -224 -1408 0
v -192 -1408 0
v -224 -1440 0
v -256 -1440 0
v -256 -1408 0
v -224 -1408 0
v -256 -1440 0
v -288 -1440 0
v -288 -1408 0
v -256 -1408 0
v -288 -1440 0
v -320 -1440 0
v -320 -1408 0
v -288 -1408 0
v -320 -1440 0
v -352 -1440 0
v -352 -1408 0
v -320 -1408 0
v -352 -1440 0
v -384 -1440 0
v -384 -1408 0
v -352 -1408 0
v -384 -1440 0
v -416 -1440 0
v -416 -1408 0
v -384 -1408 0
v -416 -1440 0
v -448 -1440 0
v -448 -1408 0
v -416 -1408 0
v -448 -1440 0
v -480 -1440 0
v -480 -1408 0
v -448 -1408 0
v -480 -1440 0
v -512 -1440 0
v -512 -1408 0
v -480 -1408 0
v -512 -1440 0
v -544 -1440 0
v -544 -1408 0
v -512 -1408 0
v -544 -1440 0
v -576 -1440 0
v -576 -1408 0
v -544 -1408 0
v -576 -1440 0
v -608 -1440 0
v -608 -1408 0
v -576 -1408 0
v -608 -1440 0
v -640 -1440 0
v -640 -1408 0
v -608 -1408 0
v -640 -1440 0
v -672 -1440 0
v -672 -1408 0
v -640 -1408 0
v -672 -1440 0
v -704 -1440 0
v -704 -1408 0
v -672 -1408 0
v -704 -1440 0
v -736 -1440 0
v -736 -1408 0
v -704 -1408 0
v -736 -1440 0
v -768 -1440 0
v -768 -1408 0
v -736 -1408 0
v -768 -1440 0
v -800 -1440 0
v -800 -1408 0
v -768 -1408 0
v -800 -1440 0
v -832 -1440 0
v -832 -1408 0
v -800 -1408 0
v -832 -1440 0
v -864 -1440 0
v -864 -1408 0
v -832 -1408 0
v -864 -1440 0
v -896 -1440 0
v -896 -1408 0
v -864 -1408 0
v -896 -1440 0
v -928 -1440 0
v -928 -1408 0
v -896 -1408 0
v -928 -1440 0
v -960 -1440 0
v -960 -1408 0
v -928 -1408 0
v -960 -1440 0
v -992 -1440 0
v -992 -1408 0
v -960 -1408 0
v -992 -1440 0
v -1024 -1440 0
v -1024 -1408 0
v -992 -1408 0
v -32 -1472 0
v -64 -1472 0
v -64 -1440 0
v -32 -1440 0
v -64 -1472 0
v -96 -1472 0
v -96 -1440 0
v -64 -1440 0
v -96 -1472 0
v -128 -1472 0
v -128 -1440 0
v -96 -1440 0
v -128 -1472 0
v -160 -1472 0
v -160 -1440 0
v -128 -1440 0
v -160 -1472 0
v -192 -1472 0
v -192 -1440 0
v -160 -1440 0
v -192 -1472 0
v -224 -1472 0
v -224 -1440 0
v -192 -1440 0
v -224 -1472 0
v -256 -1472 0
v -256 -1440 0
v -224 -1440 0
v -256 -1472 0
v -288 -1472 0
v -288 -1440 0
v -256 -1440 0
v -288 -1472 0
v -320 -1472 0
v -320 -1440 0
v -288 -1440 0
v -320 -1472 0
v -352 -1472 0
v -352 -1440 0
v -320 -1440 0
v -352 -1472 0
v -384 -1472 0
v -384 -1440 0
v -352 -1440 0
v -384 -1472 0
v -416 -1472 0
v -416 -1440 0
v -384 -1440 0
v -416 -1472 0
v -448 -1472 0
v -448 -1440 0
v -416 -1440 0
v -448 -1472 0
v -480 -1472 0
v -480 -1440 0
v -448 -1440 0
v -480 -1472 0
v -512 -1472 0
v -512 -1440 0
v -480 -1440 0
v -512 -1472 0
v -544 -1472 0
v -544 -1440 0
v -512 -1440 0
v -544 -1472 0
v -576 -1472 0
v -576 -1440 0
v -544 -1440 0
v -576 -1472 0
v -608 -1472 0
v -608 -1440 0
v -576 -1440 0
v -608 -1472 0
v -640 -1472 0
v -640 -1440 0
v -608 -1440 0
v -640 -1472 0
v -672 -1472 0
v -672 -1440 0
v -640 -1440 0
v -672 -1472 0
v -704 -1472 0
v -704 -1440 0
v -672 -1440 0
v -704 -1472 0
v -736 -1472 0
v -736 -1440 0
v -704 -1440 0
v -736 -1472 0
v -768 -1472 0
v -768 -1440 0
v -736 -1440 0
v -768 -1472 0
v -800 -1472 0
v -800 -1440 0
v -768 -1440 0
v -800 -1472 0
v -832 -1472 0
v -832 -1440 0
v -800 -1440 0
v -832 -1472 0
v -864 -1472 0
v -864 -1440 0
v -832 -1440 0
v -864 -1472 0
v -896 -1472 0
v -896 -1440 0
v -864 -1440 0
v -896 -1472 0
v -928 -1472 0
v -928 -1440 0
v -896 -1440 0
v -928 -1472 0
v -960 -1472 0
v -960 -1440 0
v -928 -1440 0
v -960 -1472 0
v -992 -1472 0
v -992 -1440 0
v -960 -1440 0
v -992 -1472 0
v -1024 -1472 0
v -1024 -1440 0
v -992 -1440 0

# Texture cooridinates (Count = 38)
vt 0.5 0.9
vt 0.6 0.9
vt 0.6 1
vt 0.5 1
vt 0.3 0.9
vt 0.4 0.9
vt 0.4 1
vt 0.3 1
vt 0.5 0.8
vt 0.6 0.8
vt 0.3 0.8
vt 0.4 0.8
vt 0.3 0.5
vt 0.4 0.5
vt 0.4 0.6
vt 0.3 0.6
vt 0.4 0.7
vt 0.3 0.7
vt 0.5 0.7
vt 0.6 0.7
vt 0 0.9
vt 0.1 0.9
vt 0.1 1
vt 0 1
vt 0.2 0.9
vt 0.2 1
vt 0 0.8
vt 0.1 0.8
vt 0.2 0.8
vt 0.1 0.5
vt 0.2 0.5
vt 0.2 0.6
vt 0.1 0.6
vt 0 0.5
vt 0 0.6
vt 0 0.7
vt 0.1 0.7
vt 0.2 0.7

# Normal
vn 0 0 -1

# Mesh description
g PL_Water_mesh_0001

# Faces
f 1/1/1 2/2/1 3/3/1 4/4/1
f 5/5/1 6/6/1 7/7/1 8/8/1
f 9/1/1 10/2/1 11/3/1 12/4/1
f 13/9/1 14/10/1 15/2/1 16/1/1
f 17/11/1 18/12/1 19/6/1 20/5/1
f 21/9/1 22/10/1 23/2/1 24/1/1
f 25/9/1 26/10/1 27/2/1 28/1/1
f 29/11/1 30/12/1 31/6/1 32/5/1
f 33/9/1 34/10/1 35/2/1 36/1/1
f 37/9/1 38/10/1 39/2/1 40/1/1
f 41/11/1 42/12/1 43/6/1 44/5/1
f 45/9/1 46/10/1 47/2/1 48/1/1
f 49/9/1 50/10/1 51/2/1 52/1/1
f 53/11/1 54/12/1 55/6/1 56/5/1
f 57/13/1 58/14/1 59/15/1 60/16/1
f 61/6/1 62/1/1 63/4/1 64/7/1
f 65/1/1 66/2/1 67/3/1 68/4/1
f 69/9/1 70/10/1 71/2/1 72/1/1
f 73/11/1 74/12/1 75/6/1 76/5/1
f 77/12/1 78/9/1 79/1/1 80/6/1
f 81/12/1 82/9/1 83/1/1 84/6/1
f 85/9/1 86/10/1 87/2/1 88/1/1
f 89/9/1 90/10/1 91/2/1 92/1/1
f 93/11/1 94/12/1 95/6/1 96/5/1
f 97/16/1 98/15/1 99/17/1 100/18/1
f 101/17/1 102/19/1 103/9/1 104/12/1
f 105/19/1 106/20/1 107/10/1 108/9/1
f 109/5/1 110/6/1 111/7/1 112/8/1
f 113/6/1 114/1/1 115/4/1 116/7/1
f 117/6/1 118/1/1 119/4/1 120/7/1
f 121/6/1 122/1/1 123/4/1 124/7/1
f 125/6/1 126/1/1 127/4/1 128/7/1
f 129/6/1 130/1/1 131/4/1 132/7/1
f 133/6/1 134/1/1 135/4/1 136/7/1
f 137/9/1 138/10/1 139/2/1 140/1/1
f 141/11/1 142/12/1 143/6/1 144/5/1
f 145/9/1 146/10/1 147/2/1 148/1/1
f 149/18/1 150/17/1 151/12/1 152/11/1
f 153/17/1 154/19/1 155/9/1 156/12/1
f 157/17/1 158/19/1 159/9/1 160/12/1
f 161/17/1 162/19/1 163/9/1 164/12/1
f 165/17/1 166/19/1 167/9/1 168/12/1
f 169/17/1 170/19/1 171/9/1 172/12/1
f 173/17/1 174/19/1 175/9/1 176/12/1
f 177/19/1 178/20/1 179/10/1 180/9/1
f 181/18/1 182/17/1 183/12/1 184/11/1
f 185/19/1 186/20/1 187/10/1 188/9/1
f 189/21/1 190/22/1 191/23/1 192/24/1
f 193/22/1 194/25/1 195/26/1 196/23/1
f 197/25/1 198/5/1 199/8/1 200/26/1
f 201/27/1 202/28/1 203/22/1 204/21/1
f 205/28/1 206/29/1 207/25/1 208/22/1
f 209/29/1 210/11/1 211/5/1 212/25/1
f 213/27/1 214/28/1 215/22/1 216/21/1
f 217/28/1 218/29/1 219/25/1 220/22/1
f 221/29/1 222/11/1 223/5/1 224/25/1
f 225/21/1 226/22/1 227/23/1 228/24/1
f 229/22/1 230/25/1 231/26/1 232/23/1
f 233/22/1 234/25/1 235/26/1 236/23/1
f 237/22/1 238/25/1 239/26/1 240/23/1
f 241/25/1 242/5/1 243/8/1 244/26/1
f 245/27/1 246/28/1 247/22/1 248/21/1
f 249/28/1 250/29/1 251/25/1 252/22/1
f 253/29/1 254/11/1 255/5/1 256/25/1
f 257/27/1 258/28/1 259/22/1 260/21/1
f 261/28/1 262/29/1 263/25/1 264/22/1
f 265/28/1 266/29/1 267/25/1 268/22/1
f 269/28/1 270/29/1 271/25/1 272/22/1
f 273/29/1 274/11/1 275/5/1 276/25/1
f 277/27/1 278/28/1 279/22/1 280/21/1
f 281/28/1 282/29/1 283/25/1 284/22/1
f 285/29/1 286/11/1 287/5/1 288/25/1
f 289/21/1 290/22/1 291/23/1 292/24/1
f 293/22/1 294/25/1 295/26/1 296/23/1
f 297/22/1 298/25/1 299/26/1 300/23/1
f 301/22/1 302/25/1 303/26/1 304/23/1
f 305/25/1 306/5/1 307/8/1 308/26/1
f 309/21/1 310/22/1 311/23/1 312/24/1
f 313/30/1 314/31/1 315/32/1 316/33/1
f 317/28/1 318/29/1 319/25/1 320/22/1
f 321/28/1 322/29/1 323/25/1 324/22/1
f 325/28/1 326/29/1 327/25/1 328/22/1
f 329/29/1 330/11/1 331/5/1 332/25/1
f 333/27/1 334/28/1 335/22/1 336/21/1
f 337/28/1 338/29/1 339/25/1 340/22/1
f 341/29/1 342/11/1 343/5/1 344/25/1
f 345/27/1 346/28/1 347/22/1 348/21/1
f 349/28/1 350/29/1 351/25/1 352/22/1
f 353/28/1 354/29/1 355/25/1 356/22/1
f 357/28/1 358/29/1 359/25/1 360/22/1
f 361/29/1 362/11/1 363/5/1 364/25/1
f 365/27/1 366/28/1 367/22/1 368/21/1
f 369/28/1 370/29/1 371/25/1 372/22/1
f 373/28/1 374/29/1 375/25/1 376/22/1
f 377/28/1 378/29/1 379/25/1 380/22/1
f 381/28/1 382/29/1 383/25/1 384/22/1
f 385/29/1 386/11/1 387/5/1 388/25/1
f 389/27/1 390/28/1 391/22/1 392/21/1
f 393/28/1 394/29/1 395/25/1 396/22/1
f 397/29/1 398/11/1 399/5/1 400/25/1
f 401/27/1 402/28/1 403/22/1 404/21/1
f 405/28/1 406/29/1 407/25/1 408/22/1
f 409/28/1 410/29/1 411/25/1 412/22/1
f 413/28/1 414/29/1 415/25/1 416/22/1
f 417/29/1 418/11/1 419/5/1 420/25/1
f 421/27/1 422/28/1 423/22/1 424/21/1
f 425/28/1 426/29/1 427/25/1 428/22/1
f 429/28/1 430/29/1 431/25/1 432/22/1
f 433/28/1 434/29/1 435/25/1 436/22/1
f 437/28/1 438/29/1 439/25/1 440/22/1
f 441/29/1 442/11/1 443/5/1 444/25/1
f 445/27/1 446/28/1 447/22/1 448/21/1
f 449/28/1 450/29/1 451/25/1 452/22/1
f 453/29/1 454/11/1 455/5/1 456/25/1
f 457/27/1 458/28/1 459/22/1 460/21/1
f 461/28/1 462/29/1 463/25/1 464/22/1
f 465/28/1 466/29/1 467/25/1 468/22/1
f 469/28/1 470/29/1 471/25/1 472/22/1
f 473/29/1 474/11/1 475/5/1 476/25/1
f 477/27/1 478/28/1 479/22/1 480/21/1
f 481/28/1 482/29/1 483/25/1 484/22/1
f 485/28/1 486/29/1 487/25/1 488/22/1
f 489/28/1 490/29/1 491/25/1 492/22/1
f 493/28/1 494/29/1 495/25/1 496/22/1
f 497/29/1 498/11/1 499/5/1 500/25/1
f 501/27/1 502/28/1 503/22/1 504/21/1
f 505/28/1 506/29/1 507/25/1 508/22/1
f 509/34/1 510/30/1 511/33/1 512/35/1
f 513/22/1 514/25/1 515/26/1 516/23/1
f 517/22/1 518/25/1 519/26/1 520/23/1
f 521/22/1 522/25/1 523/26/1 524/23/1
f 525/22/1 526/25/1 527/26/1 528/23/1
f 529/30/1 530/31/1 531/32/1 532/33/1
f 533/28/1 534/29/1 535/25/1 536/22/1
f 537/28/1 538/29/1 539/25/1 540/22/1
f 541/28/1 542/29/1 543/25/1 544/22/1
f 545/34/1 546/30/1 547/33/1 548/35/1
f 549/22/1 550/25/1 551/26/1 552/23/1
f 553/22/1 554/25/1 555/26/1 556/23/1
f 557/22/1 558/25/1 559/26/1 560/23/1
f 561/22/1 562/25/1 563/26/1 564/23/1
f 565/22/1 566/25/1 567/26/1 568/23/1
f 569/22/1 570/25/1 571/26/1 572/23/1
f 573/22/1 574/25/1 575/26/1 576/23/1
f 577/22/1 578/25/1 579/26/1 580/23/1
f 581/22/1 582/25/1 583/26/1 584/23/1
f 585/22/1 586/25/1 587/26/1 588/23/1
f 589/22/1 590/25/1 591/26/1 592/23/1
f 593/22/1 594/25/1 595/26/1 596/23/1
f 597/22/1 598/25/1 599/26/1 600/23/1
f 601/30/1 602/31/1 603/32/1 604/33/1
f 605/28/1 606/29/1 607/25/1 608/22/1
f 609/28/1 610/29/1 611/25/1 612/22/1
f 613/28/1 614/29/1 615/25/1 616/22/1
f 617/28/1 618/29/1 619/25/1 620/22/1
f 621/29/1 622/11/1 623/5/1 624/25/1
f 625/27/1 626/28/1 627/22/1 628/21/1
f 629/28/1 630/29/1 631/25/1 632/22/1
f 633/28/1 634/29/1 635/25/1 636/22/1
f 637/28/1 638/29/1 639/25/1 640/22/1
f 641/28/1 642/29/1 643/25/1 644/22/1
f 645/28/1 646/29/1 647/25/1 648/22/1
f 649/28/1 650/29/1 651/25/1 652/22/1
f 653/28/1 654/29/1 655/25/1 656/22/1
f 657/28/1 658/29/1 659/25/1 660/22/1
f 661/28/1 662/29/1 663/25/1 664/22/1
f 665/28/1 666/29/1 667/25/1 668/22/1
f 669/28/1 670/29/1 671/25/1 672/22/1
f 673/28/1 674/29/1 675/25/1 676/22/1
f 677/28/1 678/29/1 679/25/1 680/22/1
f 681/28/1 682/29/1 683/25/1 684/22/1
f 685/28/1 686/29/1 687/25/1 688/22/1
f 689/28/1 690/29/1 691/25/1 692/22/1
f 693/28/1 694/29/1 695/25/1 696/22/1
f 697/28/1 698/29/1 699/25/1 700/22/1
f 701/28/1 702/29/1 703/25/1 704/22/1
f 705/28/1 706/29/1 707/25/1 708/22/1
f 709/28/1 710/29/1 711/25/1 712/22/1
f 713/28/1 714/29/1 715/25/1 716/22/1
f 717/28/1 718/29/1 719/25/1 720/22/1
f 721/28/1 722/29/1 723/25/1 724/22/1
f 725/28/1 726/29/1 727/25/1 728/22/1
f 729/28/1 730/29/1 731/25/1 732/22/1
f 733/28/1 734/29/1 735/25/1 736/22/1
f 737/28/1 738/29/1 739/25/1 740/22/1
f 741/28/1 742/29/1 743/25/1 744/22/1
f 745/29/1 746/11/1 747/5/1 748/25/1
f 749/36/1 750/37/1 751/28/1 752/27/1
f 753/37/1 754/38/1 755/29/1 756/28/1
f 757/37/1 758/38/1 759/29/1 760/28/1
f 761/37/1 762/38/1 763/29/1 764/28/1
f 765/37/1 766/38/1 767/29/1 768/28/1
f 769/37/1 770/38/1 771/29/1 772/28/1
f 773/37/1 774/38/1 775/29/1 776/28/1
f 777/37/1 778/38/1 779/29/1 780/28/1
f 781/37/1 782/38/1 783/29/1 784/28/1
f 785/37/1 786/38/1 787/29/1 788/28/1
f 789/37/1 790/38/1 791/29/1 792/28/1
f 793/37/1 794/38/1 795/29/1 796/28/1
f 797/37/1 798/38/1 799/29/1 800/28/1
f 801/37/1 802/38/1 803/29/1 804/28/1
f 805/37/1 806/38/1 807/29/1 808/28/1
f 809/37/1 810/38/1 811/29/1 812/28/1
f 813/37/1 814/38/1 815/29/1 816/28/1
f 817/37/1 818/38/1 819/29/1 820/28/1
f 821/37/1 822/38/1 823/29/1 824/28/1
f 825/37/1 826/38/1 827/29/1 828/28/1
f 829/37/1 830/38/1 831/29/1 832/28/1
f 833/37/1 834/38/1 835/29/1 836/28/1
f 837/37/1 838/38/1 839/29/1 840/28/1
f 841/37/1 842/38/1 843/29/1 844/28/1
f 845/37/1 846/38/1 847/29/1 848/28/1
f 849/37/1 850/38/1 851/29/1 852/28/1
f 853/37/1 854/38/1 855/29/1 856/28/1
f 857/37/1 858/38/1 859/29/1 860/28/1
f 861/37/1 862/38/1 863/29/1 864/28/1
f 865/37/1 866/38/1 867/29/1 868/28/1
f 869/38/1 870/18/1 871/11/1 872/29/1

