# Tiled2Unity generated file. Do not modify by hand.
# Wavefront file for 'CT_Prison_mesh_0002.obj'

# Vertices (Count = 48)
v -1280 -544 0
v -1312 -544 0
v -1312 -512 0
v -1280 -512 0
v -1312 -576 0
v -1344 -576 0
v -1344 -544 0
v -1312 -544 0
v -1344 -608 0
v -1376 -608 0
v -1376 -576 0
v -1344 -576 0
v -1376 -640 0
v -1408 -640 0
v -1408 -608 0
v -1376 -608 0
v -1376 -672 0
v -1408 -672 0
v -1408 -640 0
v -1376 -640 0
v -1344 -704 0
v -1376 -704 0
v -1376 -672 0
v -1344 -672 0
v -1312 -736 0
v -1344 -736 0
v -1344 -704 0
v -1312 -704 0
v -1280 -768 0
v -1312 -768 0
v -1312 -736 0
v -1280 -736 0
v -544 -800 0
v -576 -800 0
v -576 -768 0
v -544 -768 0
v -544 -832 0
v -576 -832 0
v -576 -800 0
v -544 -800 0
v -544 -864 0
v -576 -864 0
v -576 -832 0
v -544 -832 0
v -576 -864 0
v -608 -864 0
v -608 -832 0
v -576 -832 0

# Texture cooridinates (Count = 8)
vt 0.7 0.7
vt 0.7 0.8
vt 0.6 0.8
vt 0.6 0.7
vt 0.6 0.6
vt 0.7 0.6
vt 0.7 0.5
vt 0.6 0.5

# Normal
vn 0 0 -1

# Mesh description
g CT_Prison_mesh_0002

# Faces
f 1/1/1 2/2/1 3/3/1 4/4/1
f 5/1/1 6/2/1 7/3/1 8/4/1
f 9/1/1 10/2/1 11/3/1 12/4/1
f 13/1/1 14/2/1 15/3/1 16/4/1
f 17/4/1 18/1/1 19/2/1 20/3/1
f 21/4/1 22/1/1 23/2/1 24/3/1
f 25/4/1 26/1/1 27/2/1 28/3/1
f 29/4/1 30/1/1 31/2/1 32/3/1
f 33/5/1 34/6/1 35/7/1 36/8/1
f 37/5/1 38/6/1 39/7/1 40/8/1
f 41/5/1 42/6/1 43/7/1 44/8/1
f 45/5/1 46/6/1 47/7/1 48/8/1

