# Tiled2Unity generated file. Do not modify by hand.
# Wavefront file for 'LB_Furnace_mesh_0004.obj'

# Vertices (Count = 32)
v -1376 -448 0
v -1408 -448 0
v -1408 -416 0
v -1376 -416 0
v -928 -512 0
v -960 -512 0
v -960 -480 0
v -928 -480 0
v -960 -512 0
v -992 -512 0
v -992 -480 0
v -960 -480 0
v -992 -512 0
v -1024 -512 0
v -1024 -480 0
v -992 -480 0
v -928 -576 0
v -960 -576 0
v -960 -544 0
v -928 -544 0
v -960 -576 0
v -992 -576 0
v -992 -544 0
v -960 -544 0
v -960 -640 0
v -992 -640 0
v -992 -608 0
v -960 -608 0
v -992 -640 0
v -1024 -640 0
v -1024 -608 0
v -992 -608 0

# Texture cooridinates (Count = 4)
vt 0.9 0.6666666
vt 1 0.6666666
vt 1 1
vt 0.9 1

# Normal
vn 0 0 -1

# Mesh description
g LB_Furnace_mesh_0004

# Faces
f 1/1/1 2/2/1 3/3/1 4/4/1
f 5/1/1 6/2/1 7/3/1 8/4/1
f 9/1/1 10/2/1 11/3/1 12/4/1
f 13/1/1 14/2/1 15/3/1 16/4/1
f 17/1/1 18/2/1 19/3/1 20/4/1
f 21/1/1 22/2/1 23/3/1 24/4/1
f 25/1/1 26/2/1 27/3/1 28/4/1
f 29/1/1 30/2/1 31/3/1 32/4/1

