# Tiled2Unity generated file. Do not modify by hand.
# Wavefront file for 'LB_Furnace_mesh_0005.obj'

# Vertices (Count = 36)
v -1376 -416 0
v -1408 -416 0
v -1408 -384 0
v -1376 -384 0
v -1408 -416 0
v -1440 -416 0
v -1440 -384 0
v -1408 -384 0
v -1440 -416 0
v -1472 -416 0
v -1472 -384 0
v -1440 -384 0
v -1472 -416 0
v -1504 -416 0
v -1504 -384 0
v -1472 -384 0
v -960 -512 0
v -992 -512 0
v -992 -480 0
v -960 -480 0
v -960 -576 0
v -992 -576 0
v -992 -544 0
v -960 -544 0
v -960 -608 0
v -992 -608 0
v -992 -576 0
v -960 -576 0
v -1504 -608 0
v -1536 -608 0
v -1536 -576 0
v -1504 -576 0
v -960 -640 0
v -992 -640 0
v -992 -608 0
v -960 -608 0

# Texture cooridinates (Count = 16)
vt 0.6 0.6
vt 0.7 0.6
vt 0.7 0.7
vt 0.6 0.7
vt 0.8 0.6
vt 0.8 0.7
vt 0.9 0.6
vt 0.9 0.7
vt 0.5 0.6
vt 0.5 0.7
vt 0.5 0.4
vt 0.6 0.4
vt 0.6 0.5
vt 0.5 0.5
vt 0.9 0.8
vt 0.8 0.8

# Normal
vn 0 0 -1

# Mesh description
g LB_Furnace_mesh_0005

# Faces
f 1/1/1 2/2/1 3/3/1 4/4/1
f 5/2/1 6/5/1 7/6/1 8/3/1
f 9/2/1 10/5/1 11/6/1 12/3/1
f 13/5/1 14/7/1 15/8/1 16/6/1
f 17/9/1 18/1/1 19/4/1 20/10/1
f 21/9/1 22/1/1 23/4/1 24/10/1
f 25/11/1 26/12/1 27/13/1 28/14/1
f 29/6/1 30/8/1 31/15/1 32/16/1
f 33/9/1 34/1/1 35/4/1 36/10/1

